# Blender 5.0.1
# www.blender.org
mtllib dandelion_lod2.mtl
o dandelion_01_a_LOD2
v -0.003123 0.000486 -0.000663
v -0.001887 -0.001172 -0.001300
v -0.000157 0.005453 -0.002261
v 0.002264 0.002680 -0.002360
v 0.006335 0.022034 -0.007182
v 0.014619 0.017790 -0.007851
v 0.019794 0.013941 0.000210
v 0.037994 0.030931 -0.004260
v 0.027291 0.029007 -0.017131
v 0.013286 0.036723 -0.019500
v 0.030640 0.043057 -0.039594
v 0.042088 0.034894 -0.037765
v 0.044417 0.035293 -0.053744
v 0.051391 0.032296 -0.056059
v 0.052531 0.040850 -0.024490
v 0.054318 0.034535 -0.049478
v 0.003257 0.002940 0.000082
v -0.001560 -0.000261 0.000132
v 0.000259 0.000005 -0.001794
v -0.002356 0.000625 -0.000396
v 0.003570 0.004343 0.003790
v 0.001888 0.004436 0.005926
v 0.017393 0.015846 0.008380
v 0.012386 0.018902 0.018594
v 0.094029 0.013526 0.043259
v 0.083772 0.012285 0.058169
v -0.000790 -0.000470 -0.000307
v 0.003258 0.003752 0.005718
v 0.015817 0.016400 0.014201
v 0.093877 0.007146 0.050907
v 0.039824 0.026228 0.006762
v 0.031303 0.036010 0.034343
v 0.035397 0.026971 0.021701
v 0.045616 0.030045 0.049820
v 0.066541 0.034610 0.015614
v 0.056438 0.029248 0.032899
v 0.082972 0.025361 0.025938
v 0.064784 0.021366 0.058916
v 0.074313 0.017221 0.042055
v 0.000110 0.000297 0.000538
v -0.001720 0.000134 0.000930
v 0.004721 0.002401 0.004493
v 0.002082 0.001509 0.005061
v 0.010962 0.010804 0.018686
v 0.006900 0.009468 0.019668
v 0.024552 0.006496 0.037117
v 0.017526 0.010508 0.040173
v 0.033946 -0.002572 0.064668
v 0.018473 0.008415 0.067858
v 0.012300 0.022434 0.072169
v 0.024664 0.029058 0.097042
v 0.034038 0.011832 0.095117
v 0.047059 -0.000349 0.088317
v 0.051834 0.010585 0.112646
v 0.046860 0.011844 0.120840
v 0.043191 0.022339 0.115487
v 0.016495 0.018375 0.039309
v 0.007095 0.013804 0.019246
v 0.001374 0.003127 0.005094
v -0.002021 0.000661 0.001173
v -0.002989 0.001304 0.001936
v -0.000430 -0.000357 0.000434
v -0.007113 0.001686 -0.006779
v -0.004657 0.000074 -0.008995
v -0.001767 0.001801 -0.011370
v 0.002126 0.001336 -0.001074
v -0.010755 0.007400 -0.031961
v -0.016523 0.005421 -0.028706
v -0.014315 0.016167 -0.055595
v -0.027123 0.010836 -0.047815
v -0.033062 0.015680 -0.045259
v -0.019664 0.006887 -0.026573
v -0.048199 0.019996 -0.071799
v -0.039760 0.011642 -0.076175
v -0.024801 0.019828 -0.082131
v -0.032959 0.011473 -0.104567
v -0.049377 0.005780 -0.099989
v -0.061668 0.009299 -0.093765
v -0.067627 0.001027 -0.119051
v -0.057364 -0.002071 -0.121175
v -0.063065 0.004018 -0.133045
v -0.061296 0.003016 -0.136759
v -0.043854 0.003523 -0.123542
v -0.057268 0.003423 -0.134984
v -0.003535 -0.000324 -0.001754
v -0.002158 -0.001195 -0.000935
v 0.001315 0.001212 -0.007778
v 0.003577 -0.000026 -0.006582
v 0.006080 0.001300 -0.005111
v -0.001105 -0.000346 0.000319
v 0.019429 0.005741 -0.016338
v 0.015345 0.004166 -0.019454
v 0.036982 0.009763 -0.025799
v 0.026756 0.006208 -0.031714
v 0.022936 0.010248 -0.034955
v 0.012838 0.005220 -0.021110
v 0.029259 0.008346 -0.057374
v 0.041736 0.001339 -0.051029
v 0.056621 0.008297 -0.039314
v 0.066153 0.006197 -0.059652
v 0.049242 0.001617 -0.069034
v 0.035956 0.005107 -0.076968
v 0.046631 0.000311 -0.091924
v 0.054706 -0.002427 -0.085832
v 0.055505 0.003057 -0.097305
v 0.060312 0.002346 -0.096656
v 0.063714 0.002628 -0.079492
v 0.061830 0.002441 -0.093251
v -0.002400 0.001802 -0.003656
v -0.000264 0.000631 -0.002575
v 0.001500 0.001901 -0.000769
v -0.000073 0.000166 0.002375
v -0.000471 -0.000766 0.000320
v -0.008220 0.001406 0.003802
v -0.009319 0.000015 0.001167
v -0.010422 0.001505 -0.001868
v -0.000875 0.000859 -0.001734
v -0.030007 0.005995 -0.001118
v -0.028938 0.003962 0.004425
v -0.050638 0.011310 -0.005417
v -0.047373 0.003876 0.005829
v -0.046341 0.006616 0.012335
v -0.028004 0.005049 0.007717
v -0.069477 0.004128 0.020536
v -0.073560 0.004329 0.010204
v -0.073905 0.018193 0.002866
v -0.095087 0.021784 0.010752
v -0.095060 0.010093 0.015126
v -0.090889 0.003440 0.022288
v -0.114425 0.001388 0.022108
v -0.115610 0.008354 0.017325
v -0.123368 0.008149 0.027248
v -0.126228 0.010232 0.027284
v -0.113496 0.017818 0.018346
v -0.124062 0.012924 0.026055
v -0.002703 0.001338 -0.003872
v -0.003519 0.001080 -0.001511
v -0.003908 0.002525 0.000506
v -0.013344 0.006833 -0.008543
v -0.012817 0.005435 -0.009363
v -0.022235 0.012830 -0.013944
v -0.022023 0.009966 -0.015820
v -0.037870 0.018641 -0.013992
v -0.039036 0.014499 -0.021899
v -0.032715 0.016409 -0.031785
v -0.050761 0.029607 -0.043246
v -0.055462 0.013306 -0.027909
v -0.056952 0.018036 -0.012466
v -0.079750 0.015103 -0.019829
v -0.080463 0.008206 -0.032911
v -0.095865 0.005844 -0.029819
v -0.100292 0.002730 -0.035045
v -0.074622 0.025574 -0.048022
v -0.095992 0.004882 -0.040131
v -0.020821 0.010881 -0.017943
v -0.012265 0.006240 -0.010293
v 0.000674 0.001121 -0.002296
v -0.000444 -0.000973 -0.000546
v -0.009110 0.011920 0.005036
v -0.012628 0.006464 0.006197
v -0.013311 0.002987 0.001354
v -0.033667 0.007461 0.004024
v -0.025479 0.005378 0.012950
v -0.021548 0.013139 0.011534
v -0.035187 0.021373 0.022367
v -0.038486 0.012576 0.028470
v -0.046256 0.022383 0.036411
v -0.051614 0.021815 0.040442
v -0.048907 0.003966 0.015237
v -0.050794 0.015321 0.037403
v -0.001991 -0.001707 -0.001704
v 0.000482 0.004977 0.001949
v -0.004610 0.000503 0.000439
v -0.002070 0.001643 0.003482
v 0.000305 0.000720 0.000816
v -0.001387 0.000265 0.000426
v -0.000873 0.002434 0.005177
v -0.002447 0.001560 0.004121
v -0.008699 0.007203 0.014488
v -0.010778 0.006082 0.012129
v -0.015992 0.007499 0.027848
v -0.020414 0.010503 0.024892
v -0.030706 0.002212 0.043935
v -0.037046 0.010216 0.036391
v -0.041774 0.019624 0.033714
v -0.059903 0.020586 0.036918
v -0.058740 0.007727 0.043058
v -0.056009 -0.001028 0.053387
v -0.074985 0.003013 0.049643
v -0.079113 0.003220 0.043781
v -0.076140 0.011963 0.043811
v -0.021475 0.014982 0.024724
v -0.010815 0.009192 0.012334
v -0.002761 0.002843 0.003525
v -0.002026 0.001103 -0.000039
v -0.000330 0.001263 0.003126
v -0.002451 0.001695 0.001820
v -0.001955 0.000691 0.002388
v 0.000494 0.002366 -0.001607
v -0.001092 0.001861 -0.001176
v -0.002882 0.003005 -0.000859
v -0.001467 0.005555 -0.008912
v -0.000484 0.004497 -0.008817
v -0.002002 0.010001 -0.017825
v -0.000233 0.007700 -0.018381
v -0.009007 0.013591 -0.029271
v -0.003504 0.010547 -0.033305
v 0.006093 0.013053 -0.033142
v 0.005128 0.023343 -0.051464
v -0.006065 0.008401 -0.047541
v -0.018139 0.011261 -0.042180
v -0.022246 0.007315 -0.061472
v -0.012594 0.002212 -0.067338
v -0.021100 0.002103 -0.077563
v -0.018749 0.001165 -0.082847
v -0.001041 0.018060 -0.070391
v -0.013709 0.002358 -0.081765
v 0.001795 0.008702 -0.018477
v 0.000328 0.005305 -0.008835
v -0.003069 -0.000227 -0.002062
v -0.001290 -0.000698 -0.001627
v -0.001611 0.000678 -0.008356
v 0.000568 0.000389 -0.008366
v 0.002442 0.002175 -0.008238
v 0.000018 0.000634 -0.001273
v 0.005817 0.014310 -0.021430
v 0.002180 0.010978 -0.023541
v 0.013597 0.022245 -0.032976
v 0.007055 0.012206 -0.037057
v 0.000863 0.012700 -0.038757
v -0.000972 0.010784 -0.024086
v -0.001447 0.013957 -0.057505
v 0.008616 0.012375 -0.056108
v 0.013047 0.026313 -0.051868
v 0.018122 0.021005 -0.071152
v 0.011469 0.011380 -0.073197
v 0.002602 0.008916 -0.072857
v 0.011042 0.000288 -0.090850
v 0.017092 0.004498 -0.089567
v 0.012257 0.006366 -0.100079
v 0.013887 0.008056 -0.102346
v 0.018052 0.013711 -0.088371
v 0.014843 0.010006 -0.099990
v -0.000284 0.000981 0.000559
v -0.000826 -0.000587 0.000739
v -0.000224 0.002252 0.004329
v -0.000759 0.000598 0.004350
v -0.001516 0.009902 0.009090
v -0.002183 0.008009 0.011071
v -0.000367 0.021240 0.011404
v -0.005206 0.020888 0.013271
v 0.004582 0.035292 0.022358
v -0.007865 0.031949 0.025492
v -0.018604 0.032461 0.025262
v -0.023215 0.034655 0.039839
v -0.012020 0.035620 0.043987
v -0.001705 0.040799 0.045918
v -0.012818 0.037890 0.058279
v -0.016500 0.033511 0.060442
v -0.021411 0.036835 0.055312
v -0.008595 0.021977 0.012074
v -0.004406 0.009046 0.009909
v -0.002167 0.001197 0.004400
v -0.002281 0.000102 0.001085
v -0.002112 0.000650 0.000301
v -0.000342 0.000702 -0.000802
v -0.002722 0.005748 0.002663
v -0.001478 0.005564 0.001889
v -0.001623 0.006036 0.000668
v 0.000274 0.001194 -0.002734
v -0.001260 0.021177 0.004315
v 0.000060 0.019896 0.006629
v 0.003879 0.033699 0.002211
v 0.006307 0.033689 0.009121
v 0.000133 0.032981 0.017057
v 0.000328 0.044960 0.026752
v 0.015074 0.044896 0.014760
v 0.013024 0.050893 0.002880
v 0.023519 0.064407 0.013360
v 0.028202 0.059519 0.023684
v 0.035976 0.070190 0.024256
v 0.039473 0.071246 0.029334
v 0.012261 0.059123 0.035390
v 0.035952 0.068092 0.032526
v -0.001519 0.020089 0.008217
v -0.011828 0.143756 -0.008306
v -0.010912 0.142645 -0.006513
v -0.011879 0.140418 -0.008695
v -0.011169 0.139524 -0.007273
v -0.012126 0.145868 -0.007591
v -0.013979 0.145657 -0.005937
v -0.014129 0.145041 -0.003525
v -0.012486 0.144381 -0.001770
v -0.010014 0.144064 -0.001698
v -0.008161 0.144276 -0.003352
v -0.008012 0.144892 -0.005763
v -0.009654 0.145552 -0.007519
v -0.012086 0.151120 -0.007823
v -0.014878 0.150800 -0.005329
v -0.015101 0.149872 -0.001696
v -0.012625 0.148878 0.000949
v -0.008896 0.148401 0.001055
v -0.006106 0.148720 -0.001440
v -0.005884 0.149648 -0.005070
v -0.008360 0.150642 -0.007716
v -0.004524 0.001009 -0.002732
v -0.002346 0.001994 0.001855
v -0.012081 0.085153 -0.011767
v -0.008905 0.041679 -0.009785
v -0.012770 0.085030 -0.013264
v -0.009586 0.041285 -0.011274
v -0.061815 0.086294 -0.053679
v -0.012874 0.116362 -0.010623
v -0.013530 0.116529 -0.012026
v -0.062080 0.086216 -0.053834
v -0.062327 0.086308 -0.053659
v -0.012566 0.128234 -0.009598
v -0.013250 0.128681 -0.011029
v -0.062215 0.086443 -0.053396
v -0.061899 0.086435 -0.053408
v -0.004427 0.024749 -0.006416
v -0.005140 0.024499 -0.007966
v -0.063592 0.088057 -0.053400
v -0.061451 0.086653 -0.054201
v -0.062530 0.085780 -0.052897
v -0.061489 0.085469 -0.053580
v -0.064715 0.089454 -0.054265
v -0.063034 0.090021 -0.053142
v -0.060956 0.089873 -0.053401
v -0.059698 0.089096 -0.054891
v -0.059997 0.088145 -0.056739
v -0.061677 0.087578 -0.057862
v -0.063755 0.087726 -0.057602
v -0.065013 0.088503 -0.056112
v -0.065883 0.093521 -0.055562
v -0.063350 0.094375 -0.053870
v -0.060219 0.094151 -0.054262
v -0.058324 0.092980 -0.056508
v -0.058777 0.091546 -0.059295
v -0.061310 0.090693 -0.060985
v -0.064439 0.090917 -0.060593
v -0.066334 0.092088 -0.058346
v -0.006372 -0.000093 0.000266
v -0.002454 0.002146 0.001096
v -0.046051 0.044583 -0.033909
v -0.018621 0.023792 -0.012985
v -0.047337 0.044113 -0.033503
v -0.019764 0.022839 -0.013415
v -0.006700 0.003590 0.000676
v -0.009148 0.002234 0.000047
v -0.057627 0.061914 -0.042662
v -0.058680 0.061619 -0.042083
v -0.061219 0.075295 -0.049283
v -0.062194 0.075457 -0.048502
v -0.030080 0.033245 -0.023906
v -0.030945 0.032383 -0.024039
v 0.006006 0.093492 0.008202
v 0.005475 0.093361 0.009892
v -0.000379 0.002071 -0.002483
v -0.002506 0.001969 0.001084
v 0.004396 0.094775 0.007759
v 0.001747 0.094592 0.009653
v 0.002730 0.094568 0.012764
v 0.005988 0.094736 0.012792
v 0.007018 0.094864 0.009699
v 0.004158 0.099493 0.007186
v 0.000853 0.099265 0.009549
v 0.002080 0.099235 0.013429
v 0.006144 0.099444 0.013464
v 0.007428 0.099603 0.009606
v 0.003991 0.102597 0.008038
v 0.001427 0.102420 0.009871
v 0.002379 0.102397 0.012880
v 0.005531 0.102559 0.012908
v 0.006527 0.102683 0.009915
v 0.003885 0.104204 0.010763
v 0.006261 0.089763 0.008160
v 0.005760 0.089584 0.009735
v 0.010118 0.063482 0.005045
v 0.007043 0.032681 0.003906
v 0.006240 0.032782 0.005204
v 0.009337 0.063243 0.006369
v -0.001178 0.005064 -0.001769
v -0.002636 0.004994 0.000691
v 0.002306 0.019714 0.003405
v 0.003168 0.019648 0.002035
v 0.010483 0.047740 0.005136
v 0.009680 0.047798 0.006448
v 0.006335 0.074930 0.006613
v 0.006850 0.075548 0.005407
v 0.001679 0.012551 0.001632
v 0.000812 0.012559 0.003044
v -0.006432 0.138152 0.016324
v -0.003768 0.138236 0.011157
v -0.017882 0.139660 0.015424
v -0.007685 0.146654 0.012362
v -0.003736 0.146068 0.009434
v -0.014970 0.147873 0.013235
v -0.008850 0.153413 0.004641
v -0.006914 0.153454 0.003536
v -0.011792 0.154450 0.005254
v -0.010745 0.148200 -0.003612
v -0.003468 0.154219 0.000296
v -0.004570 0.153895 0.002364
v -0.016210 0.156116 -0.004555
v -0.014958 0.156277 -0.007715
v -0.003106 0.154550 -0.002260
v -0.016707 0.155773 -0.002035
v -0.002899 0.155357 -0.005313
v -0.015913 0.154840 0.001002
v -0.004243 0.156476 -0.007590
v -0.014437 0.154478 0.003723
v -0.007059 0.156368 -0.008919
v -0.009821 0.156472 -0.009297
v -0.012929 0.156891 -0.008840
v -0.016598 0.156664 -0.017058
v -0.009790 0.156023 -0.018079
v -0.020492 0.157203 -0.014086
v -0.018797 0.150988 -0.022782
v -0.009551 0.150422 -0.023571
v -0.023270 0.151125 -0.020173
v -0.028331 0.148231 -0.011265
v -0.030705 0.146546 -0.004437
v -0.023473 0.153766 -0.007538
v -0.024825 0.152482 -0.001978
v -0.023617 0.150771 0.004485
v -0.020551 0.149470 0.010246
v -0.029239 0.144310 0.004102
v -0.024614 0.142122 0.011500
v -0.002828 0.149125 -0.022176
v 0.004997 0.147622 -0.017098
v -0.003919 0.155183 -0.017222
v 0.002247 0.154272 -0.014058
v 0.005603 0.151671 -0.008665
v 0.005352 0.148511 -0.002769
v 0.009096 0.144483 -0.009639
v 0.008818 0.142502 -0.003576
v 0.006304 0.140556 0.004716
v 0.002966 0.139117 0.009879
v 0.004207 0.149146 0.003197
v 0.001556 0.148661 0.007652
v -0.045013 0.084662 -0.061982
v -0.049631 0.083339 -0.062929
v -0.044093 0.089028 -0.053309
v -0.049567 0.091194 -0.062275
v -0.052475 0.089247 -0.064539
v -0.047867 0.094349 -0.057139
v -0.056832 0.095885 -0.061375
v -0.058054 0.095226 -0.062639
v -0.056038 0.097616 -0.059494
v -0.062216 0.091707 -0.056669
v -0.061379 0.094443 -0.064784
v -0.059471 0.094756 -0.064305
v -0.063491 0.099009 -0.054343
v -0.066271 0.098394 -0.054657
v -0.063556 0.094289 -0.064586
v -0.061317 0.099187 -0.054425
v -0.066195 0.094493 -0.064279
v -0.058836 0.098596 -0.055472
v -0.068007 0.095481 -0.063021
v -0.056829 0.098215 -0.057120
v -0.068583 0.096046 -0.060524
v -0.068442 0.096877 -0.058331
v -0.067630 0.098155 -0.056134
v -0.073578 0.098043 -0.051436
v -0.075424 0.095459 -0.056315
v -0.070635 0.099943 -0.049213
v -0.076757 0.093548 -0.047056
v -0.078839 0.090348 -0.053891
v -0.073933 0.095256 -0.044204
v -0.065384 0.095523 -0.041521
v -0.059184 0.095711 -0.040761
v -0.064232 0.098902 -0.047483
v -0.059297 0.098957 -0.047336
v -0.053987 0.098050 -0.049259
v -0.049629 0.096845 -0.052568
v -0.052151 0.094569 -0.043208
v -0.046574 0.092419 -0.047859
v -0.078605 0.087568 -0.059070
v -0.075559 0.084752 -0.065858
v -0.075565 0.093216 -0.060833
v -0.073888 0.091110 -0.066066
v -0.069634 0.088760 -0.069193
v -0.064265 0.087071 -0.069500
v -0.069669 0.082016 -0.069878
v -0.064380 0.081278 -0.070496
v -0.056930 0.081477 -0.069884
v -0.051952 0.081935 -0.068076
v -0.059394 0.088616 -0.070084
v -0.055277 0.089537 -0.068890
v -0.011492 0.141909 -0.007647
v -0.011404 0.142157 -0.008191
v -0.010847 0.142082 -0.008294
v -0.010591 0.141787 -0.007813
v -0.010990 0.141680 -0.007413
v 0.004356 0.092723 0.009059
v 0.004041 0.092732 0.008177
v 0.005278 0.092806 0.011514
v 0.004781 0.092820 0.007607
v 0.005725 0.092866 0.009990
v -0.009718 0.143924 -0.009306
v -0.008801 0.142813 -0.007512
v -0.009768 0.140586 -0.009694
v -0.009059 0.139692 -0.008273
v -0.009970 0.085321 -0.012766
v -0.006794 0.041847 -0.010784
v -0.010659 0.085198 -0.014264
v -0.007476 0.041453 -0.012273
v -0.010763 0.116530 -0.011622
v -0.011419 0.116697 -0.013025
v -0.010455 0.128402 -0.010597
v -0.011139 0.128849 -0.012028
v -0.002344 0.024837 -0.007402
v -0.003057 0.024587 -0.008952
v 0.005398 0.089968 0.007660
v 0.004897 0.089788 0.009235
v 0.009255 0.063686 0.004545
v 0.006180 0.032885 0.003405
v 0.005377 0.032987 0.004703
v 0.008473 0.063448 0.005868
v -0.002644 0.005268 -0.002619
v -0.004102 0.005198 -0.000160
v 0.001443 0.019919 0.002905
v 0.002305 0.019853 0.001535
v 0.009620 0.047944 0.004635
v 0.008817 0.048003 0.005948
v 0.005472 0.075135 0.006113
v 0.005987 0.075752 0.004906
v 0.000816 0.012756 0.001131
v -0.000051 0.012764 0.002544
v 0.005288 0.093463 0.007484
v 0.004757 0.093331 0.009173
v -0.063267 0.089339 -0.050813
v -0.060573 0.088429 -0.052647
v -0.062375 0.086389 -0.051669
v -0.061334 0.086078 -0.052352
v -0.045878 0.045264 -0.032537
v -0.018443 0.024494 -0.011569
v -0.047164 0.044794 -0.032131
v -0.019586 0.023541 -0.011999
v -0.006375 0.004872 0.003263
v -0.008822 0.003516 0.002633
v -0.057448 0.062619 -0.041240
v -0.058501 0.062325 -0.040660
v -0.061040 0.076001 -0.047861
v -0.062323 0.076272 -0.046827
v -0.029928 0.033843 -0.022699
v -0.030793 0.032982 -0.022832
vn -0.2972 0.6163 0.7293
vn 0.3063 -0.0158 0.9518
vn -0.2520 0.4997 0.8287
vn -0.4343 0.7205 0.5407
vn -0.1213 0.8522 0.5090
vn -0.0721 0.6124 0.7872
vn 0.4674 0.7873 0.4021
vn 0.2700 0.6534 0.7072
vn 0.2622 0.3712 0.8908
vn -0.6218 0.7404 0.2552
vn 0.4584 0.8843 0.0889
vn 0.0999 0.9936 0.0527
vn 0.0993 0.9910 -0.0903
vn -0.2028 0.9491 -0.2409
vn -0.3630 0.9300 -0.0573
vn -0.4766 0.8362 0.2713
vn -0.6708 0.7192 -0.1807
vn -0.1446 0.8423 -0.5192
vn -0.7151 0.6949 0.0753
vn -0.6313 0.7476 -0.2065
vn 0.1788 0.9735 0.1424
vn -0.2986 0.9515 -0.0743
vn -0.1361 0.9209 -0.3654
vn -0.2944 0.8157 -0.4980
vn -0.5113 0.8356 -0.2009
vn 0.3494 0.8863 0.3038
vn 0.4467 0.8946 0.0118
vn 0.2971 0.8872 0.3530
vn -0.2186 0.7619 -0.6097
vn -0.3596 0.8203 -0.4446
vn 0.1693 0.6280 -0.7596
vn 0.2090 0.8459 0.4907
vn -0.0339 0.9600 0.2780
vn 0.0957 0.9132 -0.3960
vn 0.4397 0.8938 0.0889
vn 0.3025 0.9414 0.1492
vn 0.1134 0.7979 0.5920
vn 0.1664 0.8509 -0.4983
vn -0.1723 0.9677 -0.1841
vn 0.2548 0.8226 -0.5083
vn 0.8047 0.5800 -0.1267
vn -0.2479 0.9630 -0.1058
vn 0.5785 0.6705 -0.4646
vn 0.5425 0.8168 -0.1963
vn 0.7509 0.6339 -0.1853
vn 0.8436 0.4550 -0.2852
vn 0.6341 0.6240 -0.4567
vn -0.5016 0.3238 -0.8022
vn -0.8557 0.1639 -0.4908
vn -0.8483 0.0358 -0.5283
vn 0.9647 0.1339 -0.2266
vn 0.9229 -0.0782 -0.3769
vn 0.2465 0.9518 -0.1825
vn 0.5097 0.7648 -0.3939
vn 0.8496 0.2033 -0.4866
vn 0.7275 0.4534 -0.5149
vn 0.7583 0.3105 -0.5732
vn 0.5192 0.5370 -0.6649
vn -0.4255 0.8766 0.2248
vn 0.0628 0.9932 0.0982
vn 0.0424 0.9989 0.0204
vn 0.4659 0.8758 -0.1261
vn 0.4594 0.8699 -0.1793
vn -0.1412 0.9319 0.3340
vn 0.2163 0.9741 0.0662
vn 0.1534 0.9725 0.1754
vn 0.4492 0.8934 -0.0068
vn 0.0406 0.9794 -0.1977
vn 0.5899 0.7908 -0.1633
vn -0.3936 0.9096 -0.1330
vn -0.4547 0.8873 0.0775
vn 0.1601 0.9201 -0.3574
vn 0.5232 0.7451 -0.4136
vn -0.1235 0.9635 -0.2377
vn 0.2458 0.9635 -0.1058
vn -0.2625 0.9287 0.2618
vn -0.0212 0.9997 0.0081
vn 0.5580 0.8161 0.1506
vn -0.2670 0.8961 0.3547
vn -0.3740 0.9274 -0.0103
vn -0.1578 0.9706 0.1819
vn 0.3160 0.8910 0.3259
vn 0.1976 0.8348 0.5139
vn -0.4184 0.8832 -0.2119
vn -0.0231 0.9986 0.0476
vn -0.3044 0.9495 -0.0766
vn 0.1422 0.9848 0.0998
vn -0.0888 0.9840 0.1541
vn 0.1741 0.9039 0.3906
vn 0.1029 0.9923 -0.0686
vn 0.4778 0.8080 0.3446
vn -0.2204 0.9636 -0.1510
vn -0.2158 0.9351 -0.2811
vn 0.0507 0.9938 -0.0986
vn 0.4106 0.9092 0.0693
vn -0.0927 0.9952 0.0317
vn 0.3096 0.9476 -0.0786
vn -0.1891 0.9466 -0.2610
vn 0.0385 0.9005 0.4331
vn 0.1970 0.9651 0.1725
vn -0.4625 0.8768 0.1311
vn -0.3227 0.9331 -0.1587
vn -0.6532 0.7544 0.0648
vn -0.3579 0.8014 0.4792
vn -0.0106 0.6724 0.7401
vn 0.6434 0.7297 0.2314
vn -0.0915 0.8427 -0.5305
vn 0.4556 0.8585 -0.2355
vn 0.1123 0.8177 0.5647
vn 0.1095 0.9937 -0.0238
vn 0.1051 0.9926 0.0605
vn 0.0496 0.8776 -0.4769
vn 0.0635 0.9041 -0.4225
vn 0.1208 0.9236 0.3638
vn 0.0017 0.9932 0.1163
vn 0.0988 0.9950 -0.0169
vn -0.1333 0.9225 -0.3623
vn 0.0635 0.9393 -0.3370
vn -0.0247 0.9996 -0.0132
vn 0.2020 0.8491 0.4881
vn 0.3728 0.4227 0.8261
vn 0.2207 0.5197 0.8254
vn 0.1278 0.8313 0.5409
vn 0.3218 0.5994 0.7329
vn 0.1738 0.7804 0.6006
vn 0.4225 0.2238 0.8783
vn 0.5763 0.6724 0.4644
vn 0.6496 -0.1999 0.7335
vn 0.3592 -0.0746 0.9303
vn 0.3418 0.3300 0.8799
vn 0.5347 0.8319 -0.1487
vn 0.6582 0.5489 -0.5153
vn 0.6488 0.6724 -0.3564
vn 0.2584 0.9395 0.2249
vn 0.4167 0.9047 0.0882
vn 0.3944 0.9118 -0.1146
vn 0.0561 0.9885 -0.1402
vn 0.5086 0.5483 -0.6638
vn 0.0346 0.9178 0.3954
vn -0.0951 0.9748 0.2017
vn -0.1151 0.9004 -0.4196
vn -0.0111 0.9472 -0.3204
vn -0.0430 0.7797 0.6247
vn 0.0971 0.9095 0.4041
vn -0.2149 0.8977 -0.3846
vn -0.3138 0.9432 0.1091
vn -0.2587 0.9635 -0.0688
vn -0.3365 0.8873 0.3153
vn -0.3054 0.6878 0.6585
vn -0.1336 0.6993 0.7022
vn 0.1260 0.8710 -0.4748
vn 0.0259 0.8765 -0.4807
vn -0.3111 0.7870 -0.5328
vn -0.3011 0.4406 -0.8457
vn -0.2935 0.3735 -0.8800
vn -0.9055 0.2643 -0.3321
vn -0.4051 0.7820 -0.4737
vn -0.7593 -0.0848 -0.6452
vn -0.5094 0.1072 -0.8538
vn -0.3599 0.0088 -0.9329
vn 0.1993 0.8241 -0.5302
vn -0.2873 0.5024 -0.8155
vn -0.6528 0.0917 -0.7520
vn -0.5626 0.4550 -0.6903
vn -0.5547 0.2429 -0.7958
vn -0.4298 0.5062 -0.7477
vn -0.1005 0.9437 -0.3151
vn 0.0590 0.9828 0.1752
vn -0.4137 0.6909 -0.5929
vn 0.1183 0.7599 -0.6392
vn -0.6517 0.0951 -0.7525
vn -0.9243 0.2608 -0.2787
vn -0.1514 0.9019 -0.4045
vn 0.4357 0.8820 -0.1794
vn 0.5722 0.5774 0.5824
vn 0.0243 0.9388 -0.3437
vn 0.2391 0.7678 0.5944
vn 0.3082 0.6044 0.7347
vn 0.2981 0.4156 0.8593
vn 0.1037 0.6134 0.7829
vn 0.7715 -0.0120 0.6361
vn -0.1395 0.9353 0.3253
vn 0.0837 0.7646 0.6390
vn 0.6349 0.2289 0.7379
vn 0.0747 0.1311 0.9885
vn 0.1649 0.4371 0.8842
vn 0.8805 0.3335 0.3368
vn 0.8881 0.4561 0.0563
vn 0.3944 0.9100 -0.1274
vn 0.7977 0.6030 -0.0095
vn -0.1990 0.9425 -0.2685
vn -0.2832 0.9111 0.2995
vn 0.1955 0.9538 0.2283
vn 0.7002 0.6579 0.2774
vn 0.0054 0.9281 0.3722
vn 0.0466 0.9959 -0.0771
vn 0.7601 0.6461 0.0692
vn -0.4122 0.8910 0.1902
vn -0.3341 0.9421 -0.0297
vn -0.2505 0.9187 0.3055
vn 0.2485 0.9094 0.3335
vn 0.2448 0.9205 -0.3044
vn 0.1579 0.9611 -0.2267
vn -0.6646 0.7045 0.2489
vn -0.3873 0.8893 0.2433
vn 0.1832 0.9695 -0.1628
vn -0.2956 0.9455 -0.1364
vn -0.0741 0.9965 -0.0379
vn -0.4612 0.8862 0.0446
vn -0.7949 0.6017 0.0773
vn -0.7543 0.6210 0.2131
vn 0.3723 0.9106 -0.1794
vn 0.5658 0.7626 0.3135
vn -0.6974 0.7123 -0.0786
vn -0.3209 0.9028 0.2863
vn -0.2727 0.9597 0.0673
vn 0.1171 0.9171 0.3811
vn 0.2087 0.9600 0.1864
vn -0.4167 0.8797 0.2290
vn 0.0685 0.9958 0.0602
vn -0.1142 0.9387 0.3254
vn -0.4878 0.8557 -0.1726
vn -0.4969 0.8678 0.0101
vn -0.8108 0.5333 -0.2411
vn -0.9102 0.3919 -0.1343
vn -0.6879 0.6915 0.2204
vn -0.1993 0.9344 -0.2953
vn 0.1697 0.9788 -0.1147
vn -0.8240 0.5598 -0.0876
vn -0.5838 0.7604 -0.2845
vn -0.8396 0.5431 0.0098
vn -0.4516 0.8192 0.3534
vn -0.5492 0.8266 -0.1228
vn -0.9567 0.1153 0.2674
vn -0.9637 0.2227 -0.1473
vn -0.9456 0.3137 -0.0867
vn -0.4685 0.8420 -0.2676
vn 0.0324 0.5220 -0.8523
vn -0.8903 -0.0346 -0.4540
vn -0.3368 0.7938 -0.5065
vn -0.1469 0.8786 -0.4545
vn 0.0346 0.9424 -0.3328
vn -0.2192 0.9619 -0.1634
vn -0.3605 0.8917 -0.2735
vn 0.5523 0.3896 -0.7370
vn -0.6995 0.6987 -0.1501
vn -0.3870 0.8924 -0.2320
vn 0.3624 0.6096 -0.7050
vn 0.2519 0.9620 0.1057
vn -0.0302 0.9885 -0.1484
vn 0.3365 0.7708 -0.5409
vn 0.3529 0.8865 -0.2992
vn -0.9936 -0.0931 0.0644
vn -0.9340 -0.1329 -0.3317
vn -0.9461 0.2882 -0.1476
vn -0.8354 0.5473 -0.0515
vn -0.8549 0.1376 0.5002
vn -0.6320 0.5517 -0.5442
vn -0.7701 0.6313 -0.0918
vn 0.2233 0.1727 0.9593
vn -0.7695 0.4101 0.4895
vn -0.8385 0.4203 0.3468
vn -0.6573 0.3819 -0.6497
vn -0.7354 0.5120 0.4438
vn -0.6856 0.7278 0.0166
vn -0.7470 0.6495 0.1421
vn -0.6120 0.7640 -0.2043
vn -0.4159 0.7385 -0.5307
vn -0.4860 0.6344 -0.6010
vn -0.4746 0.3242 -0.8183
vn -0.8555 0.4211 0.3012
vn -0.4234 -0.6799 0.5987
vn -0.7466 -0.6643 -0.0354
vn 0.0215 -0.9543 0.2982
vn -0.8762 -0.2166 -0.4306
vn -0.5553 -0.1005 -0.8256
vn -0.3718 0.0178 -0.9281
vn 0.3882 -0.0314 -0.9211
vn 0.7549 -0.6091 -0.2431
vn 0.8443 -0.3822 -0.3755
vn 0.7101 -0.6594 0.2471
vn 0.2004 -0.7535 0.6261
vn -0.8564 -0.4832 0.1821
vn 0.4134 -0.0487 -0.9093
vn 0.8549 -0.3233 -0.4057
vn 0.2722 -0.5646 0.7792
vn -0.9276 -0.2802 0.2471
vn 0.3761 -0.1311 -0.9173
vn 0.8119 -0.5028 0.2967
vn -0.4486 -0.4724 0.7587
vn -0.8845 -0.1006 -0.4556
vn -0.9070 0.0682 0.4156
vn -0.9100 0.0672 0.4090
vn -0.9105 0.0670 0.4081
vn -0.3445 -0.0388 -0.9380
vn -0.7787 -0.5175 0.3546
vn -0.4324 0.1108 -0.8948
vn -0.1502 -0.8730 -0.4640
vn -0.4315 0.2241 -0.8738
vn 0.4312 -0.2328 0.8717
vn -0.4221 -0.0718 -0.9037
vn 0.8764 -0.2850 0.3881
vn 0.4834 -0.2293 0.8448
vn 0.7087 -0.6972 0.1077
vn -0.2348 0.0265 0.9717
vn -0.3728 -0.2533 0.8927
vn -0.7722 -0.2027 0.6022
vn -0.6675 -0.7140 0.2113
vn 0.0072 -0.9676 -0.2524
vn -0.4438 -0.7859 -0.4305
vn 0.2066 -0.8278 -0.5216
vn 0.7514 -0.6305 -0.1946
vn 0.4633 -0.0039 0.8862
vn -0.8445 -0.5350 0.0259
vn -0.4866 -0.6506 -0.5830
vn 0.8141 -0.5060 -0.2850
vn 0.4828 0.0922 0.8709
vn -0.9219 -0.3816 -0.0672
vn 0.2321 -0.7021 -0.6732
vn 0.9180 -0.1768 0.3549
vn -0.2364 0.1437 0.9610
vn -0.8183 -0.0525 0.5724
vn 0.1120 -0.5572 0.8228
vn -0.3202 -0.3306 0.8878
vn -0.1385 -0.1217 0.9829
vn 0.9932 -0.0218 -0.1142
vn -0.9167 -0.2998 0.2640
vn -0.8601 -0.4057 0.3094
vn 0.8976 0.3395 -0.2813
vn 0.7730 0.5243 -0.3572
vn 0.5247 0.1748 -0.8331
vn -0.4940 0.0412 0.8685
vn -0.9488 0.0046 -0.3157
vn 0.0585 -0.1126 -0.9919
vn -0.8626 -0.4446 -0.2414
vn 0.9487 0.1024 -0.2992
vn 0.5062 -0.4464 0.7379
vn 0.9104 -0.2972 -0.2878
vn -0.5947 -0.0041 0.8039
vn -0.4738 -0.5523 0.6859
vn 0.0050 0.0704 -0.9975
vn 0.7811 0.5754 -0.2426
vn 0.4660 0.5363 0.7037
vn 0.5780 0.0564 0.8141
vn -0.0210 0.5483 -0.8360
vn -0.5308 0.4849 0.6951
vn -0.0516 0.9984 0.0241
vn -0.8317 0.4923 -0.2566
vn -0.7086 -0.4510 -0.5427
vn 0.2989 0.1168 -0.9471
vn 0.8805 -0.4239 -0.2124
vn -0.2880 -0.4727 0.8328
vn -0.5099 -0.8092 0.2918
vn -0.5264 -0.1969 0.8271
vn 0.5029 0.0067 -0.8643
vn -0.8534 -0.1046 -0.5106
vn -0.8535 -0.1045 -0.5104
vn -0.8543 -0.1031 -0.5094
vn -0.5053 -0.0379 0.8621
vn 0.4915 -0.0537 -0.8692
vn -0.5029 -0.0067 0.8643
vn 0.5472 0.2727 0.7914
vn 0.3879 0.5082 0.7689
vn 0.4622 0.4297 0.7757
vn -0.1629 0.3506 0.9223
vn 0.3337 0.4497 0.8285
vn 0.2491 0.9620 0.1117
vn 0.1698 0.9751 0.1425
vn -0.0348 0.5199 0.8535
vn -0.0263 0.9880 0.1521
vn 0.1007 0.9771 0.1875
vn -0.0289 0.9918 0.1242
vn -0.0463 0.9844 0.1699
vn -0.0481 0.9695 0.2402
vn 0.2538 0.9527 0.1672
vn 0.1896 0.9585 0.2127
vn 0.1033 0.9030 0.4171
vn 0.1282 0.8992 0.4183
vn 0.0623 0.9264 0.3713
vn 0.2040 0.9715 0.1206
vn -0.0088 0.9508 0.3098
vn 0.0417 0.9982 0.0438
vn -0.0948 0.9335 0.3458
vn 0.0791 0.9071 0.4135
vn 0.1010 0.8935 -0.4375
vn -0.3966 0.9095 -0.1248
vn -0.0802 0.9031 -0.4219
vn -0.1807 0.7287 -0.6605
vn 0.1201 0.6850 -0.7186
vn -0.5486 0.7006 -0.4564
vn -0.7446 0.6591 -0.1052
vn -0.7381 0.6652 0.1127
vn -0.5633 0.8230 0.0731
vn -0.5764 0.7947 0.1905
vn -0.6980 0.5784 0.4222
vn -0.5531 0.7347 0.3928
vn -0.5390 0.4425 0.7167
vn -0.4241 0.6453 0.6354
vn 0.2694 0.8520 -0.4490
vn 0.3831 0.6070 -0.6963
vn 0.5514 0.7828 -0.2883
vn 0.7266 0.5050 -0.4658
vn 0.7446 0.6604 0.0970
vn 0.8901 0.4553 0.0209
vn 0.7791 0.5796 0.2388
vn 0.8481 0.4521 0.2762
vn 0.8443 0.3042 0.4412
vn 0.7523 0.5941 0.2848
vn 0.4188 0.5651 0.7108
vn 0.4683 0.2534 0.8465
vn 0.5863 0.1794 -0.7900
vn 0.5447 0.4494 -0.7080
vn 0.5537 0.3521 -0.7546
vn 0.8357 0.5133 -0.1953
vn 0.6253 0.4222 -0.6563
vn -0.1408 0.8235 -0.5496
vn -0.1048 0.8692 -0.4833
vn 0.7072 0.6169 -0.3453
vn -0.0510 0.9451 -0.3227
vn -0.0546 0.8903 -0.4521
vn -0.0920 0.9431 -0.3196
vn -0.0477 0.9477 -0.3157
vn 0.0341 0.9465 -0.3209
vn -0.1010 0.8217 -0.5609
vn -0.0465 0.8559 -0.5151
vn 0.1783 0.8646 -0.4697
vn 0.1717 0.8532 -0.4926
vn 0.1296 0.8873 -0.4426
vn -0.1395 0.8513 -0.5058
vn 0.0781 0.9292 -0.3613
vn -0.1817 0.9218 -0.3425
vn 0.1306 0.9507 -0.2814
vn 0.1712 0.8772 -0.4485
vn -0.6349 0.7328 -0.2448
vn -0.2405 0.9624 0.1259
vn -0.5860 0.8058 -0.0853
vn -0.7553 0.6441 0.1211
vn -0.8611 0.4923 -0.1270
vn -0.4808 0.7729 0.4141
vn -0.0972 0.8517 0.5150
vn 0.1082 0.8863 0.4503
vn 0.0007 0.9674 0.2531
vn 0.1216 0.9624 0.2430
vn 0.4149 0.8362 0.3587
vn 0.3234 0.9276 0.1868
vn 0.6942 0.6978 0.1764
vn 0.5490 0.8352 0.0317
vn -0.6703 0.6350 -0.3841
vn -0.8750 0.3332 -0.3511
vn -0.5579 0.4974 -0.6644
vn -0.7011 0.1540 -0.6963
vn -0.2016 0.3727 -0.9058
vn -0.2580 0.1216 -0.9585
vn -0.0553 0.3062 -0.9504
vn -0.0052 0.1695 -0.9855
vn 0.1857 0.0571 -0.9809
vn -0.0092 0.3355 -0.9420
vn 0.4705 0.4834 -0.7382
vn 0.6589 0.1964 -0.7261
vn -0.3486 0.9138 -0.2084
vn 0.4306 -0.2472 0.8680
vn -0.9683 -0.2456 0.0447
vn 0.9505 0.0598 0.3049
vn 0.9510 0.0592 0.3035
vn 0.9497 0.0608 0.3073
vn -0.7382 0.6724 0.0530
vn 0.1687 0.9102 0.3782
vn 0.4539 0.5950 -0.6633
vn 0.4960 0.8683 0.0003
vn 0.6565 0.6795 -0.3275
vn 0.1869 0.9468 0.2619
vn -0.1457 0.9309 0.3350
vn 0.6840 0.2669 0.6789
vn 0.3435 0.8651 0.3654
vn -0.1092 0.6187 0.7780
vn -0.7765 0.5292 0.3421
vn -0.3484 0.4612 -0.8161
vn -0.2334 0.9705 0.0609
vn -0.9068 0.0682 0.4159
vn 0.9520 -0.3044 0.0311
vn 0.0964 -0.9887 0.1151
vn 0.7627 -0.5940 -0.2557
vn 0.7099 -0.6695 -0.2186
vn -0.4294 0.0251 -0.9028
vn -0.4318 0.0837 -0.8981
vn 0.4221 0.0721 0.9037
vn 0.4319 -0.0887 0.8975
vn -0.3400 -0.9387 -0.0572
vn 0.8552 0.4134 -0.3126
vn 0.9665 0.1600 -0.2009
vn 0.1168 0.6207 -0.7753
vn -0.6744 -0.6242 0.3944
vn 0.0300 -0.4707 0.8818
vn 0.4975 -0.0235 -0.8672
vn -0.4962 0.0300 0.8677
vn -0.4905 0.0585 0.8695
vn 0.5254 0.1827 -0.8310
vn -0.8528 -0.1057 -0.5114
vn 0.4939 -0.0419 -0.8685
vn -0.0909 -0.9925 -0.0821
vn -0.7421 -0.4931 -0.4539
vn -0.5226 -0.1518 0.8390
vn -0.3933 -0.2757 -0.8771
vn 0.6830 0.6165 -0.3916
vn 0.9492 0.0614 0.3088
vn 0.9066 0.0257 -0.4211
vn 0.9066 0.0265 -0.4212
vn 0.9063 0.0425 -0.4205
vn 0.8957 0.0940 -0.4346
vn 0.9019 -0.0037 -0.4320
vn 0.9017 -0.0013 -0.4324
vn 0.8988 0.0153 -0.4380
vn 0.8952 0.0048 -0.4457
vn 0.8949 0.0977 -0.4355
vn 0.8997 0.0339 -0.4351
vn 0.9063 0.0427 -0.4204
vn 0.8981 0.0328 -0.4386
vn 0.4011 0.2796 0.8723
vn 0.4292 -0.0222 0.9029
vn -0.8131 0.2568 -0.5224
vn -0.7872 0.3829 -0.4834
vn -0.7878 0.3790 -0.4856
vn -0.9521 0.0270 -0.3046
vn -0.8941 -0.1096 -0.4342
vn -0.9535 0.0265 -0.3001
vn -0.8090 0.2709 -0.5216
vn -0.8121 0.2578 -0.5234
vn -0.9040 -0.0665 -0.4223
vn -0.8477 -0.1116 -0.5187
vn -0.8463 0.1067 -0.5219
vn -0.8462 0.1040 -0.5226
vn -0.8089 0.2720 -0.5212
vn -0.7752 -0.4165 -0.4750
vn -0.8452 -0.1202 -0.5207
vn 0.1410 0.9776 0.1564
vn 0.5240 0.1669 -0.8352
vn -0.0904 0.9947 0.0492
vn -0.9520 -0.0454 -0.3027
vn 0.5091 0.0445 -0.8595
vn -0.7067 -0.0157 0.7073
vn 0.5123 0.1853 -0.8386
vn -0.5078 -0.0357 0.8608
vn -0.5226 -0.1518 0.8389
vn -0.4013 -0.2782 -0.8727
vn 0.3930 0.2771 0.8768
vn -0.1410 -0.9776 -0.1564
vn 0.0904 -0.9947 -0.0492
vn -0.9507 -0.0431 -0.3072
vn 0.7073 -0.0132 -0.7068
vn -0.5135 -0.0741 0.8549
vn -0.5335 0.2907 0.7943
vn -0.1233 -0.2260 0.9663
vn 0.0634 0.5552 0.8293
vn 0.3092 0.5065 0.8049
vn 0.3007 0.5103 0.8057
vn -0.5364 0.2887 0.7931
vn -0.4366 0.3042 0.8467
vn -0.4180 0.3019 0.8568
vn 0.6169 0.4089 0.6725
vn 0.6221 0.4077 0.6684
vn 0.5730 0.1033 0.8130
vn 0.5720 0.1384 0.8085
vn 0.0418 0.5694 0.8210
vn 0.5400 -0.0749 0.8384
vn 0.5427 -0.0784 0.8362
vn -0.8908 -0.3525 0.2868
vn -0.9937 0.0442 0.1031
vn 0.8458 0.2265 0.4831
vn 0.4898 -0.2832 -0.8246
vn 0.3826 -0.2466 -0.8904
vn 0.5324 -0.2782 -0.7995
vn -0.0910 -0.4967 -0.8631
vn -0.5962 -0.4788 -0.6444
vn -0.6240 -0.3233 -0.7114
vn -0.5449 -0.4151 -0.7285
vn 0.9535 -0.0266 0.3001
vn 0.8254 0.2079 0.5249
vn 0.8533 0.0217 0.5209
vn 0.8255 -0.2306 0.5151
vn 0.7975 -0.3112 0.5168
vn 0.8346 -0.2001 0.5133
vn 0.7452 -0.4827 0.4600
vn -0.8981 -0.0328 0.4386
vn -0.8998 0.0184 0.4359
vn -0.9063 -0.0138 0.4224
vn -0.9066 -0.0384 0.4202
vn -0.9035 -0.0466 0.4260
vn -0.8841 -0.1467 0.4437
vn -0.9680 -0.1539 0.1981
vn 0.9319 -0.1912 -0.3082
vn 0.0003 0.8959 -0.4443
vn -0.8908 -0.3525 0.2869
vn -0.9973 -0.0540 -0.0507
vn 0.5226 -0.2610 -0.8116
vn -0.0107 -0.6369 -0.7709
vn 0.4719 -0.3486 -0.8098
vn -0.2735 -0.5604 -0.7818
vn -0.3237 -0.4645 -0.8243
vn -0.5849 -0.3287 -0.7415
vn -0.5847 -0.3622 -0.7259
vn 0.9256 -0.0347 0.3770
vn 0.8560 0.2099 0.4725
vn 0.8591 0.0228 0.5114
vn 0.8192 -0.2312 0.5248
vn 0.7971 -0.3113 0.5174
vn 0.8243 -0.2030 0.5284
vn 0.7575 -0.4867 0.4352
vn -0.9030 -0.0361 0.4281
vn -0.8904 0.0165 0.4549
vn -0.9038 -0.0135 0.4278
vn -0.9069 -0.0384 0.4197
vn -0.9060 -0.0468 0.4206
vn -0.8890 -0.1489 0.4330
vt 0.248902 0.689962
vt 0.258208 0.722551
vt 0.250767 0.720945
vt 0.203573 0.577233
vt 0.279753 0.467618
vt 0.262928 0.576173
vt 0.386146 0.353875
vt 0.357513 0.501635
vt 0.301178 0.600804
vt 0.239520 0.689656
vt 0.379325 0.247418
vt 0.322547 0.318257
vt 0.357259 0.214561
vt 0.318054 0.223838
vt 0.230896 0.321148
vt 0.192243 0.444811
vt 0.244859 0.720106
vt 0.922375 0.099433
vt 0.891271 0.103056
vt 0.921267 0.092489
vt 0.548440 0.110522
vt 0.679102 0.044877
vt 0.665870 0.118374
vt 0.891639 0.111626
vt 0.788598 0.090710
vt 0.433182 0.105400
vt 0.337423 0.139547
vt 0.307189 0.087888
vt 0.788977 0.142263
vt 0.788788 0.117100
vt 0.892313 0.116516
vt 0.440734 0.018378
vt 0.545626 0.015066
vt 0.658232 0.188251
vt 0.432193 0.195305
vt 0.554567 0.204138
vt 0.329586 0.056838
vt 0.511779 0.259176
vt 0.496909 0.241559
vt 0.503260 0.237664
vt 0.652225 0.284880
vt 0.567962 0.294704
vt 0.569457 0.286108
vt 0.755891 0.337202
vt 0.750331 0.267237
vt 0.751193 0.210284
vt 0.867207 0.227512
vt 0.305986 0.820751
vt 0.283774 0.790842
vt 0.317456 0.812367
vt 0.650787 0.260038
vt 0.569799 0.277438
vt 0.963428 0.218087
vt 0.895355 0.301801
vt 0.936694 0.162569
vt 0.835774 0.158689
vt 0.516913 0.254217
vt 0.509611 0.233770
vt 0.154525 0.082780
vt 0.127330 0.114489
vt 0.142125 0.075844
vt 0.112538 0.108949
vt 0.129726 0.068908
vt 0.140319 0.238098
vt 0.094427 0.340392
vt 0.108118 0.232188
vt 0.090492 0.228487
vt 0.086469 0.476111
vt 0.062668 0.342432
vt 0.166562 0.589359
vt 0.167660 0.475951
vt 0.018985 0.592162
vt 0.036266 0.468541
vt 0.084636 0.598871
vt 0.037409 0.716977
vt 0.165052 0.355577
vt 0.085472 0.707465
vt 0.080168 0.771095
vt 0.108944 0.769563
vt 0.149950 0.696715
vt 0.136547 0.090429
vt 0.123126 0.084206
vt 0.150817 0.096652
vt 0.506220 0.264135
vt 0.269669 0.754863
vt 0.328926 0.803982
vt 0.263761 0.758113
vt 0.260812 0.691207
vt 0.258365 0.759064
vt 0.229016 0.658435
vt 0.252205 0.659654
vt 0.274530 0.664560
vt 0.501564 0.252847
vt 0.507519 0.248420
vt 0.513262 0.243993
vt 0.144331 0.120028
vt 0.290797 0.809071
vt 0.300232 0.803010
vt 0.310817 0.793243
vt 0.289640 0.786082
vt 0.276119 0.795858
vt 0.039722 0.263777
vt 0.045577 0.251376
vt 0.051991 0.259806
vt 0.033198 0.244210
vt 0.044559 0.240422
vt 0.035115 0.233172
vt 0.049498 0.229966
vt 0.059152 0.222974
vt 0.049461 0.214009
vt 0.061762 0.208569
vt 0.047476 0.270367
vt 0.034803 0.254799
vt 0.057818 0.273735
vt 0.061762 0.262245
vt 0.040628 0.222700
vt 0.032045 0.192677
vt 0.035577 0.289170
vt 0.013378 0.262950
vt 0.018875 0.208303
vt 0.049459 0.180402
vt 0.022595 0.278023
vt 0.009343 0.245141
vt 0.509535 0.876128
vt 0.443095 0.873598
vt 0.443800 0.864537
vt 0.011152 0.226339
vt 0.000000 0.000000
vt 0.419081 0.394891
vt 0.417552 0.399676
vt 0.423738 0.401459
vt 0.416051 0.405263
vt 0.422237 0.407046
vt 0.425267 0.396674
vt 0.429188 0.378295
vt 0.414717 0.410177
vt 0.408371 0.427234
vt 0.414557 0.429017
vt 0.463197 0.253246
vt 0.442190 0.314887
vt 0.448376 0.316670
vt 0.041395 0.842249
vt 0.016400 0.858490
vt 0.017595 0.838831
vt 0.454271 0.341908
vt 0.434567 0.394253
vt 0.449573 0.338997
vt 0.043527 0.130171
vt 0.061006 0.118063
vt 0.060267 0.131386
vt 0.040181 0.102731
vt 0.069234 0.078472
vt 0.062614 0.102444
vt 0.041307 0.144173
vt 0.060852 0.144964
vt 0.066082 0.161851
vt 0.043366 0.117524
vt 0.028037 0.108471
vt 0.014880 0.152869
vt 0.035171 0.166708
vt 0.033114 0.118685
vt 0.012230 0.097368
vt 0.029546 0.078472
vt 0.029834 0.138650
vt 0.014206 0.124486
vt 0.033571 0.128348
vt 0.073839 0.131107
vt 0.075922 0.119715
vt 0.079502 0.107334
vt 0.086195 0.094609
vt 0.073737 0.141782
vt 0.382291 0.537435
vt 0.389559 0.487061
vt 0.395138 0.487460
vt 0.470422 0.245245
vt 0.482638 0.248301
vt 0.474812 0.252124
vt 0.470406 0.271318
vt 0.470579 0.253410
vt 0.416681 0.447091
vt 0.440121 0.396642
vt 0.721131 0.771505
vt 0.698358 0.774382
vt 0.710956 0.740978
vt 0.651174 0.746066
vt 0.720180 0.791078
vt 0.686533 0.827790
vt 0.668980 0.824568
vt 0.657611 0.768951
vt 0.697523 0.834791
vt 0.676273 0.873181
vt 0.716962 0.854427
vt 0.718992 0.868927
vt 0.710797 0.842281
vt 0.644131 0.879114
vt 0.641957 0.864077
vt 0.648663 0.898825
vt 0.658946 0.907161
vt 0.719193 0.887080
vt 0.645905 0.847103
vt 0.709618 0.901693
vt 0.653950 0.832184
vt 0.692806 0.908909
vt 0.676649 0.910566
vt 0.675918 0.958702
vt 0.613770 0.933660
vt 0.636390 0.951362
vt 0.627007 0.974381
vt 0.679793 0.982649
vt 0.600296 0.959118
vt 0.583124 0.897428
vt 0.576765 0.859270
vt 0.602976 0.889317
vt 0.598085 0.856864
vt 0.586940 0.810299
vt 0.606692 0.819156
vt 0.609199 0.767689
vt 0.624458 0.786174
vt 0.711330 0.955115
vt 0.723675 0.976289
vt 0.749067 0.937899
vt 0.772645 0.950850
vt 0.769261 0.904559
vt 0.792996 0.902516
vt 0.768055 0.866397
vt 0.786001 0.863721
vt 0.780913 0.812843
vt 0.763656 0.832960
vt 0.749468 0.805847
vt 0.763741 0.781044
vt 0.420903 0.411961
vt 0.444629 0.346937
vt 0.432801 0.391389
vt 0.442702 0.365443
vt 0.923039 0.107116
vt 0.644029 0.318868
vt 0.963894 0.187779
vt 0.094869 0.782925
vt 0.050505 0.296953
vt 0.507759 0.890375
vt 0.431683 0.863530
vt 0.430978 0.872591
vt 0.427812 0.359076
vt 0.433998 0.360860
vt 0.423001 0.376511
vt 0.377101 0.551793
vt 0.383287 0.553577
vt 0.398197 0.490593
vt 0.403252 0.444174
vt 0.409438 0.445957
vt 0.040937 0.857893
vt 0.463306 0.294238
vt 0.458726 0.291458
vt 0.077833 0.151305
vt 0.465468 0.269409
vt 0.476266 0.238307
vt 0.466334 0.247891
vt 0.410760 0.446275
vt 0.469383 0.255029
vt 0.475860 0.230042
vt 0.442813 0.352267
vt 0.174003 0.855882
vt 0.175012 0.863891
vt 0.261418 0.854362
vt 0.383385 0.862446
vt 0.140700 0.863474
vt 0.142498 0.871620
vt 0.109129 0.879686
vt 0.112159 0.887769
vt 0.383900 0.853871
vt 0.099992 0.882242
vt 0.261179 0.845785
vt 0.103780 0.892489
vt 0.369307 0.576353
vt 0.375493 0.578136
vt 0.392011 0.488810
vt 0.457037 0.266604
vt 0.368239 0.532098
vt 0.376548 0.536769
vt 0.450145 0.289903
vt 0.382455 0.484351
vt 0.426078 0.391175
vt 0.441335 0.337355
vt 0.402340 0.441825
vt 0.451009 0.359188
vt 0.450782 0.319205
vt 0.438453 0.364318
vt 0.441918 0.345974
vt 0.436509 0.360874
vt 0.469674 0.228258
vt 0.166022 0.844311
vt 0.312496 0.858747
vt 0.426419 0.846145
vt 0.426367 0.859144
vt 0.165930 0.858011
vt 0.239300 0.844686
vt 0.239213 0.858379
vt 0.471155 0.859525
vt 0.471033 0.845934
vt 0.515943 0.859905
vt 0.515647 0.845723
vt 0.312579 0.845062
vt 0.536606 0.842948
vt 0.537495 0.860593
s 1
usemtl dandelion_01
f 4/1/1 1/2/2 2/3/3
f 7/4/4 9/5/5 6/6/6
f 9/5/5 11/7/7 10/8/8
f 6/6/6 10/8/8 5/9/9
f 17/10/10 6/6/6 4/1/1
f 13/11/11 12/12/12 14/13/13
f 16/14/14 12/12/12 15/15/15
f 15/15/15 9/5/5 8/16/16
f 18/17/17 4/1/1 2/3/3
f 27/18/18 21/19/19 19/20/20
f 36/21/21 31/22/22 33/23/23
f 28/24/24 23/25/25 21/19/19
f 39/26/26 26/27/27 30/28/28
f 24/29/29 33/23/23 29/30/30
f 22/31/31 29/30/30 28/24/24
f 27/18/18 22/31/31 28/24/24
f 36/21/21 37/32/32 35/33/33
f 32/34/34 36/21/21 33/23/23
f 38/35/35 36/21/21 34/36/36
f 39/26/26 25/37/37 37/32/32
f 43/38/38 40/39/39 41/40/40
f 47/41/41 44/42/42 45/43/43
f 48/44/44 47/41/41 49/45/45
f 50/46/46 52/47/47 49/45/45
f 265/48/48 268/49/49 266/50/50
f 57/51/51 45/43/43 58/52/52
f 52/47/47 54/53/53 53/54/54
f 57/51/51 49/45/45 47/41/41
f 56/55/55 52/47/47 51/56/56
f 59/57/57 45/43/43 43/38/38
f 52/47/47 48/44/44 49/45/45
f 60/58/58 43/38/38 41/40/40
f 66/59/59 64/60/60 62/61/61
f 62/61/61 63/62/62 61/63/63
f 67/64/64 70/65/65 68/66/66
f 70/65/65 72/67/67 68/66/66
f 74/68/68 71/69/69 70/65/65
f 76/70/70 74/68/68 75/71/71
f 64/60/60 72/67/67 63/62/62
f 74/68/68 78/72/72 73/73/73
f 77/74/74 79/75/75 78/72/72
f 69/76/76 74/68/68 70/65/65
f 80/77/77 81/78/78 79/75/75
f 84/79/79 80/77/77 83/80/80
f 83/80/80 77/74/74 76/70/70
f 110/81/81 87/62/82 109/82/83
f 111/83/84 88/60/85 110/81/81
f 91/64/86 94/65/87 92/66/88
f 94/65/87 96/67/89 92/66/88
f 98/68/90 95/69/91 94/65/87
f 100/70/92 98/68/90 99/71/93
f 88/60/85 96/67/89 87/62/82
f 101/74/94 97/73/95 98/68/90
f 104/77/96 102/72/97 101/74/94
f 93/76/98 98/68/90 94/65/87
f 104/77/96 105/78/99 103/75/100
f 108/79/101 104/77/96 107/80/102
f 107/80/102 101/74/94 100/70/92
f 90/59/103 110/81/81 86/61/104
f 110/81/81 85/63/105 86/61/104
f 180/43/106 177/84/107 178/38/108
f 117/59/109 115/60/110 113/61/111
f 113/61/111 114/62/112 112/63/113
f 118/64/114 121/65/115 119/66/116
f 119/66/116 122/69/117 123/67/118
f 124/73/119 121/65/115 125/68/120
f 126/71/121 128/74/122 125/68/120
f 115/60/110 123/67/118 114/62/112
f 125/68/120 129/72/123 124/73/119
f 128/74/122 130/75/124 129/72/123
f 120/76/125 125/68/120 121/65/115
f 131/77/126 132/78/127 130/75/124
f 135/79/128 131/77/126 134/80/129
f 134/80/129 128/74/122 127/70/130
f 137/50/131 139/85/132 138/86/133
f 136/48/134 140/87/135 137/50/131
f 142/1/136 139/85/132 140/87/135
f 144/6/137 141/88/138 142/1/136
f 145/4/139 147/5/140 144/6/137
f 147/5/140 149/7/141 148/8/142
f 156/89/143 142/1/136 140/87/135
f 155/10/144 144/6/137 142/1/136
f 151/11/145 150/12/146 152/13/147
f 154/14/148 150/12/146 153/15/149
f 153/15/149 147/5/140 146/16/150
f 144/6/137 148/8/142 143/9/151
f 161/4/152 163/5/153 160/6/154
f 249/43/155 246/84/156 247/38/157
f 163/5/153 165/7/158 164/8/159
f 160/6/154 164/8/159 159/9/160
f 173/90/161 160/6/154 174/91/162
f 167/11/163 166/12/164 168/13/165
f 170/14/166 166/12/164 169/15/167
f 169/15/167 163/5/153 162/16/168
f 173/90/161 158/1/169 171/10/170
f 158/1/169 172/92/171 157/88/172
f 178/38/108 196/93/173 198/94/174
f 182/41/175 179/42/176 180/43/106
f 183/44/177 182/41/175 184/45/178
f 185/46/179 187/47/180 184/45/178
f 159/9/160 174/91/162 160/6/154
f 193/52/181 182/41/175 180/43/106
f 187/47/180 189/53/182 188/54/183
f 192/51/184 184/45/178 182/41/175
f 191/55/185 187/47/180 186/56/186
f 194/57/187 180/43/106 178/38/108
f 184/45/178 188/54/183 183/44/177
f 197/95/188 178/38/108 198/94/174
f 197/95/188 176/40/189 195/58/190
f 198/94/174 175/39/191 176/40/189
f 65/96/192 68/66/66 64/60/60
f 205/1/193 202/85/194 203/87/195
f 207/6/196 204/88/197 205/1/193
f 208/4/198 210/5/199 207/6/196
f 199/97/200 203/87/195 200/98/201
f 210/5/199 212/7/202 211/8/203
f 219/89/204 205/1/193 203/87/195
f 218/10/205 207/6/196 205/1/193
f 214/11/206 213/12/207 215/13/208
f 217/14/209 213/12/207 216/15/210
f 216/15/210 210/5/199 209/16/211
f 207/6/196 211/8/203 206/9/212
f 203/87/195 201/99/213 200/98/201
f 225/59/214 223/60/215 221/61/216
f 221/61/216 222/62/217 220/63/218
f 227/66/219 222/62/217 223/60/215
f 227/66/219 230/69/220 231/67/221
f 233/68/222 230/69/220 229/65/223
f 235/70/224 233/68/222 234/71/225
f 224/96/226 227/66/219 223/60/215
f 233/68/222 237/72/227 232/73/228
f 239/77/229 237/72/227 236/74/230
f 234/71/225 229/65/223 228/76/231
f 239/77/229 240/78/232 238/75/233
f 243/79/234 239/77/229 242/80/235
f 242/80/235 236/74/230 235/70/224
f 247/38/157 244/39/236 245/40/237
f 251/41/238 248/42/239 249/43/155
f 252/44/240 251/41/238 253/45/241
f 254/46/242 256/47/243 253/45/241
f 45/43/43 42/84/244 43/38/38
f 262/52/245 251/41/238 249/43/155
f 256/47/243 258/53/246 257/54/247
f 261/51/248 253/45/241 251/41/238
f 260/55/249 256/47/243 255/56/250
f 263/57/251 249/43/155 247/38/157
f 253/45/241 257/54/247 252/44/240
f 264/58/252 247/38/157 245/40/237
f 266/50/50 269/100/253 270/86/254
f 272/1/255 269/100/253 268/49/49
f 274/6/256 271/88/257 272/1/255
f 275/4/258 277/5/259 274/6/256
f 6/6/6 3/88/260 4/1/1
f 277/5/259 279/7/261 278/8/262
f 285/10/263 274/6/256 272/1/255
f 281/11/264 280/12/265 282/13/266
f 284/14/267 280/12/265 283/15/268
f 283/15/268 277/5/259 276/16/269
f 272/1/255 267/101/270 285/10/263
f 274/6/256 278/8/262 273/9/271
f 293/102/272 491/103/273 495/104/274
f 291/105/275 492/106/276 491/103/273
f 290/107/277 493/108/278 492/106/276
f 494/109/279 296/110/280 295/111/281
f 495/104/274 294/112/282 293/102/272
f 491/103/273 292/113/283 291/105/275
f 493/108/278 296/110/280 494/109/279
f 295/114/281 495/104/274 494/115/279
f 297/116/284 304/117/285 296/110/280
f 295/114/281 302/118/286 294/112/282
f 293/102/272 300/119/287 292/113/283
f 290/107/277 305/120/288 297/116/284
f 296/110/280 303/121/289 295/111/281
f 294/112/282 301/122/290 293/102/272
f 292/113/283 299/123/291 291/105/275
f 306/124/292 321/125/293 322/126/294
f 291/105/275 298/127/295 290/107/277
s 0
f 348/128/296 548/128/296 356/128/296
f 288/129/297 286/130/297 501/131/297
f 287/132/298 501/131/298 502/133/298
f 288/129/299 503/134/299 512/135/299
f 289/136/300 317/137/300 511/138/300
f 311/139/301 310/140/301 507/141/301
s 1
f 330/102/302 320/103/303 312/104/304
f 328/105/305 319/106/306 320/103/303
f 327/107/307 316/108/308 319/106/306
f 315/109/309 333/110/310 332/111/311
f 312/104/304 331/112/312 330/102/302
f 320/103/303 329/113/313 328/105/305
f 316/108/308 333/110/310 315/109/309
f 315/115/309 331/112/312 312/104/304
f 334/116/314 341/117/315 333/110/310
f 332/114/311 339/118/316 331/112/312
f 330/102/302 337/119/317 329/113/313
f 327/107/307 342/120/318 334/116/314
f 333/110/310 340/121/319 332/111/311
f 331/112/312 338/122/320 330/102/302
f 329/113/313 336/123/321 328/105/305
f 328/105/305 335/127/322 327/107/307
f 349/142/323 343/143/324 344/144/325
s 0
f 326/128/326 545/128/326 353/128/326
f 350/128/327 540/128/327 348/128/327
f 347/128/328 544/128/328 352/128/328
f 349/128/329 538/128/329 541/128/329
f 346/128/330 547/128/330 538/128/330
f 391/128/331 521/128/331 529/128/331
f 381/145/332 526/146/332 519/147/332
s 1
f 367/148/333 361/149/334 362/150/335
f 370/151/336 364/152/337 365/153/338
f 368/154/339 362/150/335 363/155/340
f 361/149/334 370/151/336 365/153/338
f 364/156/337 368/154/339 363/155/340
f 366/157/341 375/158/342 370/151/336
f 374/159/343 368/154/339 369/160/344
f 367/148/333 371/161/345 366/157/341
f 370/151/336 374/162/343 369/163/344
f 373/164/346 367/148/333 368/154/339
f 375/158/342 376/165/347 374/162/343
f 373/164/346 376/165/347 372/166/348
f 371/161/345 376/165/347 375/158/342
f 374/159/343 376/165/347 373/164/346
f 372/166/348 376/165/347 371/161/345
f 497/167/349 363/155/340 362/150/335
f 499/168/350 362/150/335 361/149/334
f 500/169/351 361/149/334 365/153/338
f 498/170/352 365/153/338 364/152/337
f 496/171/353 364/156/337 363/155/340
s 0
f 378/172/354 527/173/354 389/174/354
f 379/128/355 525/128/355 517/128/355
s 1
f 383/175/356 360/176/357 384/177/358
s 0
f 392/178/359 522/179/359 384/177/359
f 391/128/360 524/128/360 386/128/360
f 382/180/361 526/146/361 388/181/361
s 1
f 33/23/23 23/25/25 29/30/30
f 394/182/362 396/183/363 393/184/364
f 396/183/363 395/185/365 393/184/364
f 397/186/366 399/187/367 396/183/363
f 396/183/363 401/188/368 398/189/369
f 399/187/367 400/190/370 402/191/371
f 399/187/367 402/191/371 401/188/368
f 403/192/372 407/193/373 402/191/371
f 404/194/374 403/192/372 402/191/371
f 400/190/370 404/194/374 402/191/371
f 405/195/375 408/196/376 402/191/371
f 406/197/377 405/195/375 402/191/371
f 415/198/378 406/197/377 402/191/371
f 407/193/373 409/199/379 402/191/371
f 408/196/376 410/200/380 402/191/371
f 409/199/379 411/201/381 402/191/371
f 410/200/380 412/202/382 402/191/371
f 411/201/381 413/203/383 402/191/371
f 412/202/382 401/188/368 402/191/371
f 413/203/383 414/204/384 402/191/371
f 414/204/384 415/198/378 402/191/371
f 417/205/385 415/198/378 414/204/384
f 418/206/386 415/198/378 416/207/387
f 419/208/388 417/205/385 420/209/389
f 421/210/390 416/207/387 419/208/388
f 422/211/391 418/206/386 421/210/390
f 423/212/392 424/213/393 422/211/391
f 424/213/393 406/197/377 418/206/386
f 424/213/393 408/196/376 405/195/375
f 425/214/394 410/200/380 408/196/376
f 428/215/395 425/214/394 423/212/392
f 426/216/396 412/202/382 410/200/380
f 429/217/397 426/216/396 428/215/395
f 395/185/365 427/218/398 429/217/397
f 427/218/398 401/188/368 412/202/382
f 420/209/389 432/219/399 430/220/400
f 430/220/400 433/221/401 431/222/402
f 432/219/399 411/201/381 433/221/401
f 417/205/385 413/203/383 432/219/399
f 433/221/401 409/199/379 434/223/403
f 431/222/402 434/223/403 436/224/404
f 435/225/405 409/199/379 407/193/373
f 436/224/404 435/225/405 437/226/406
f 438/227/407 435/225/405 440/228/408
f 438/227/407 441/229/409 439/230/410
f 440/228/408 404/194/374 441/229/409
f 440/228/408 407/193/373 403/192/372
f 397/186/366 404/194/374 400/190/370
f 439/230/410 397/186/366 394/182/362
f 443/182/411 445/183/412 442/184/413
f 445/183/412 444/185/414 442/184/413
f 446/186/415 448/187/416 445/183/412
f 445/183/412 450/188/417 447/189/418
f 448/187/416 449/190/419 451/191/420
f 448/187/416 451/191/420 450/188/417
f 452/192/421 456/193/422 451/191/420
f 453/194/423 452/192/421 451/191/420
f 449/190/419 453/194/423 451/191/420
f 454/195/424 457/196/425 451/191/420
f 455/197/426 454/195/424 451/191/420
f 464/198/427 455/197/426 451/191/420
f 456/193/422 458/199/428 451/191/420
f 457/196/425 459/200/429 451/191/420
f 458/199/428 460/201/430 451/191/420
f 459/200/429 461/202/431 451/191/420
f 460/201/430 462/203/432 451/191/420
f 461/202/431 450/188/417 451/191/420
f 462/203/432 463/204/433 451/191/420
f 463/204/433 464/198/427 451/191/420
f 466/205/434 464/198/427 463/204/433
f 467/206/435 464/198/427 465/207/436
f 468/208/437 466/205/434 469/209/438
f 470/210/439 465/207/436 468/208/437
f 471/211/440 467/206/435 470/210/439
f 472/212/441 473/213/442 471/211/440
f 473/213/442 455/197/426 467/206/435
f 473/213/442 457/196/425 454/195/424
f 474/214/443 459/200/429 457/196/425
f 477/215/444 474/214/443 472/212/441
f 475/216/445 461/202/431 459/200/429
f 478/217/446 475/216/445 477/215/444
f 444/185/414 476/218/447 478/217/446
f 476/218/447 450/188/417 461/202/431
f 469/209/438 481/219/448 479/220/449
f 479/220/449 482/221/450 480/222/451
f 481/219/448 460/201/430 482/221/450
f 466/205/434 462/203/432 481/219/448
f 482/221/450 458/199/428 483/223/452
f 480/222/451 483/223/452 485/224/453
f 484/225/454 458/199/428 456/193/422
f 485/224/453 484/225/454 486/226/455
f 487/227/456 484/225/454 489/228/457
f 487/227/456 490/229/458 488/230/459
f 489/228/457 453/194/423 490/229/458
f 489/228/457 456/193/422 452/192/421
f 446/186/415 453/194/423 449/190/419
f 488/230/459 446/186/415 443/182/411
f 89/96/460 92/66/88 88/60/85
s 0
f 289/136/461 504/231/461 502/133/461
f 354/128/462 544/128/462 546/128/462
s 1
f 357/232/463 358/233/464 378/234/465
f 226/64/466 229/65/223 227/66/219
f 116/96/467 119/66/116 115/60/110
f 4/1/1 3/88/260 1/2/2
f 7/4/4 8/16/16 9/5/5
f 9/5/5 12/12/12 11/7/7
f 6/6/6 9/5/5 10/8/8
f 17/10/10 7/4/4 6/6/6
f 13/11/11 11/7/7 12/12/12
f 16/14/14 14/13/13 12/12/12
f 15/15/15 12/12/12 9/5/5
f 18/17/17 17/10/10 4/1/1
f 27/18/18 28/24/24 21/19/19
f 36/21/21 35/33/33 31/22/22
f 28/24/24 29/30/30 23/25/25
f 39/26/26 38/35/35 26/27/27
f 24/29/29 32/34/34 33/23/23
f 22/31/31 24/29/29 29/30/30
f 27/18/18 20/235/468 22/31/31
f 36/21/21 39/26/26 37/32/32
f 32/34/34 34/36/36 36/21/21
f 38/35/35 39/26/26 36/21/21
f 39/26/26 30/28/28 25/37/37
f 43/38/38 42/84/244 40/39/39
f 47/41/41 46/236/469 44/42/42
f 48/44/44 46/236/469 47/41/41
f 50/46/46 51/56/56 52/47/47
f 265/48/48 267/101/270 268/49/49
f 57/51/51 47/41/41 45/43/43
f 52/47/47 55/237/470 54/53/53
f 57/51/51 50/46/46 49/45/45
f 56/55/55 55/237/470 52/47/47
f 59/57/57 58/52/52 45/43/43
f 52/47/47 53/54/54 48/44/44
f 60/58/58 59/57/57 43/38/38
f 66/59/59 65/96/192 64/60/60
f 62/61/61 64/60/60 63/62/62
f 67/64/64 69/76/76 70/65/65
f 70/65/65 71/69/69 72/67/67
f 74/68/68 73/73/73 71/69/69
f 76/70/70 77/74/74 74/68/68
f 64/60/60 68/66/66 72/67/67
f 74/68/68 77/74/74 78/72/72
f 77/74/74 80/77/77 79/75/75
f 69/76/76 75/71/71 74/68/68
f 80/77/77 82/238/471 81/78/78
f 84/79/79 82/238/471 80/77/77
f 83/80/80 80/77/77 77/74/74
f 110/81/81 88/60/85 87/62/82
f 111/83/84 89/96/460 88/60/85
f 91/64/86 93/76/98 94/65/87
f 94/65/87 95/69/91 96/67/89
f 98/68/90 97/73/95 95/69/91
f 100/70/92 101/74/94 98/68/90
f 88/60/85 92/66/88 96/67/89
f 101/74/94 102/72/97 97/73/95
f 104/77/96 103/75/100 102/72/97
f 93/76/98 99/71/93 98/68/90
f 104/77/96 106/238/472 105/78/99
f 108/79/101 106/238/472 104/77/96
f 107/80/102 104/77/96 101/74/94
f 90/59/103 111/83/84 110/81/81
f 110/81/81 109/82/83 85/63/105
f 180/43/106 179/42/176 177/84/107
f 117/59/109 116/96/467 115/60/110
f 113/61/111 115/60/110 114/62/112
f 118/64/114 120/76/125 121/65/115
f 119/66/116 121/65/115 122/69/117
f 124/73/119 122/69/117 121/65/115
f 126/71/121 127/70/130 128/74/122
f 115/60/110 119/66/116 123/67/118
f 125/68/120 128/74/122 129/72/123
f 128/74/122 131/77/126 130/75/124
f 120/76/125 126/71/121 125/68/120
f 131/77/126 133/238/473 132/78/127
f 135/79/128 133/238/473 131/77/126
f 134/80/129 131/77/126 128/74/122
f 137/50/131 140/87/135 139/85/132
f 136/48/134 156/89/143 140/87/135
f 142/1/136 141/88/138 139/85/132
f 144/6/137 143/9/151 141/88/138
f 145/4/139 146/16/150 147/5/140
f 147/5/140 150/12/146 149/7/141
f 156/89/143 155/10/144 142/1/136
f 155/10/144 145/4/139 144/6/137
f 151/11/145 149/7/141 150/12/146
f 154/14/148 152/13/147 150/12/146
f 153/15/149 150/12/146 147/5/140
f 144/6/137 147/5/140 148/8/142
f 161/4/152 162/16/168 163/5/153
f 249/43/155 248/42/239 246/84/156
f 163/5/153 166/12/164 165/7/158
f 160/6/154 163/5/153 164/8/159
f 173/90/161 161/4/152 160/6/154
f 167/11/163 165/7/158 166/12/164
f 170/14/166 168/13/165 166/12/164
f 169/15/167 166/12/164 163/5/153
f 173/90/161 174/91/162 158/1/169
f 158/1/169 174/91/162 172/92/171
f 178/38/108 177/84/107 196/93/173
f 182/41/175 181/236/474 179/42/176
f 183/44/177 181/236/474 182/41/175
f 185/46/179 186/56/186 187/47/180
f 159/9/160 172/92/171 174/91/162
f 193/52/181 192/51/184 182/41/175
f 187/47/180 190/237/475 189/53/182
f 192/51/184 185/46/179 184/45/178
f 191/55/185 190/237/475 187/47/180
f 194/57/187 193/52/181 180/43/106
f 184/45/178 187/47/180 188/54/183
f 197/95/188 194/57/187 178/38/108
f 197/95/188 198/94/174 176/40/189
f 198/94/174 196/93/173 175/39/191
f 65/96/192 67/64/64 68/66/66
f 205/1/193 204/88/197 202/85/194
f 207/6/196 206/9/212 204/88/197
f 208/4/198 209/16/211 210/5/199
f 199/97/200 219/89/204 203/87/195
f 210/5/199 213/12/207 212/7/202
f 219/89/204 218/10/205 205/1/193
f 218/10/205 208/4/198 207/6/196
f 214/11/206 212/7/202 213/12/207
f 217/14/209 215/13/208 213/12/207
f 216/15/210 213/12/207 210/5/199
f 207/6/196 210/5/199 211/8/203
f 203/87/195 202/85/194 201/99/213
f 225/59/214 224/96/226 223/60/215
f 221/61/216 223/60/215 222/62/217
f 227/66/219 231/67/221 222/62/217
f 227/66/219 229/65/223 230/69/220
f 233/68/222 232/73/228 230/69/220
f 235/70/224 236/74/230 233/68/222
f 224/96/226 226/64/466 227/66/219
f 233/68/222 236/74/230 237/72/227
f 239/77/229 238/75/233 237/72/227
f 234/71/225 233/68/222 229/65/223
f 239/77/229 241/238/476 240/78/232
f 243/79/234 241/238/476 239/77/229
f 242/80/235 239/77/229 236/74/230
f 247/38/157 246/84/156 244/39/236
f 251/41/238 250/236/477 248/42/239
f 252/44/240 250/236/477 251/41/238
f 254/46/242 255/56/250 256/47/243
f 45/43/43 44/42/42 42/84/244
f 262/52/245 261/51/248 251/41/238
f 256/47/243 259/237/478 258/53/246
f 261/51/248 254/46/242 253/45/241
f 260/55/249 259/237/478 256/47/243
f 263/57/251 262/52/245 249/43/155
f 253/45/241 256/47/243 257/54/247
f 264/58/252 263/57/251 247/38/157
f 266/50/50 268/49/49 269/100/253
f 272/1/255 271/88/257 269/100/253
f 274/6/256 273/9/271 271/88/257
f 275/4/258 276/16/269 277/5/259
f 6/6/6 5/9/9 3/88/260
f 277/5/259 280/12/265 279/7/261
f 285/10/263 275/4/258 274/6/256
f 281/11/264 279/7/261 280/12/265
f 284/14/267 282/13/266 280/12/265
f 283/15/268 280/12/265 277/5/259
f 272/1/255 268/49/49 267/101/270
f 274/6/256 277/5/259 278/8/262
f 293/102/272 292/113/283 491/103/273
f 291/105/275 290/107/277 492/106/276
f 290/107/277 297/116/284 493/108/278
f 493/108/278 297/116/284 296/110/280
f 295/114/281 294/112/282 495/104/274
f 297/116/284 305/120/288 304/117/285
f 295/114/281 303/239/289 302/118/286
f 293/102/272 301/122/290 300/119/287
f 290/107/277 298/127/295 305/120/288
f 296/110/280 304/117/285 303/121/289
f 294/112/282 302/118/286 301/122/290
f 292/113/283 300/119/287 299/123/291
f 306/124/292 307/240/479 321/125/293
f 291/105/275 299/123/291 298/127/295
s 0
f 326/128/480 534/128/480 536/128/480
s 1
f 322/126/481 514/241/482 513/242/483
s 0
f 310/140/484 314/243/484 510/244/484
f 318/245/485 512/135/485 510/244/485
f 309/246/486 506/247/486 505/248/486
f 317/137/487 313/249/487 509/250/487
s 1
f 330/102/302 329/113/313 320/103/303
f 328/105/305 327/107/307 319/106/306
f 327/107/307 334/116/314 316/108/308
f 316/108/308 334/116/314 333/110/310
f 315/115/309 332/114/311 331/112/312
f 334/116/314 342/120/318 341/117/315
f 332/114/311 340/239/319 339/118/316
f 330/102/302 338/122/320 337/119/317
f 327/107/307 335/127/322 342/120/318
f 333/110/310 341/117/315 340/121/319
f 331/112/312 339/118/316 338/122/320
f 329/113/313 337/119/317 336/123/321
f 328/105/305 336/123/321 335/127/322
f 349/142/323 350/251/488 343/143/324
s 0
f 345/128/489 543/128/489 537/128/489
f 351/128/490 545/128/490 543/128/490
f 323/128/491 534/128/491 324/128/491
f 356/128/492 539/128/492 347/128/492
s 1
f 349/142/323 542/251/493 350/251/488
s 0
f 386/128/494 518/128/494 380/128/494
f 385/252/495 519/147/495 523/253/495
s 1
f 367/148/333 366/157/341 361/149/334
f 370/151/336 369/163/344 364/152/337
f 368/154/339 367/148/333 362/150/335
f 361/149/334 366/157/341 370/151/336
f 364/156/337 369/160/344 368/154/339
f 366/157/341 371/161/345 375/158/342
f 374/159/343 373/164/346 368/154/339
f 367/148/333 372/166/348 371/161/345
f 370/151/336 375/158/342 374/162/343
f 373/164/346 372/166/348 367/148/333
f 497/167/349 496/171/353 363/155/340
f 499/168/350 497/167/349 362/150/335
f 500/169/351 499/168/350 361/149/334
f 498/170/352 500/169/351 365/153/338
f 496/171/353 498/254/352 364/156/337
s 0
f 392/178/496 523/253/496 530/255/496
f 377/128/497 528/128/497 515/128/497
s 1
f 383/175/356 359/256/498 360/176/357
s 0
f 380/128/499 525/128/499 387/128/499
s 1
f 384/177/500 521/257/501 383/175/500
s 0
f 389/174/502 520/258/502 382/180/502
s 1
f 33/23/23 31/22/22 23/25/25
f 394/182/362 397/186/366 396/183/363
f 396/183/363 398/189/369 395/185/365
f 397/186/366 400/190/370 399/187/367
f 396/183/363 399/187/367 401/188/368
f 417/205/385 416/207/387 415/198/378
f 418/206/386 406/197/377 415/198/378
f 419/208/388 416/207/387 417/205/385
f 421/210/390 418/206/386 416/207/387
f 422/211/391 424/213/393 418/206/386
f 423/212/392 425/214/394 424/213/393
f 424/213/393 405/195/375 406/197/377
f 424/213/393 425/214/394 408/196/376
f 425/214/394 426/216/396 410/200/380
f 428/215/395 426/216/396 425/214/394
f 426/216/396 427/218/398 412/202/382
f 429/217/397 427/218/398 426/216/396
f 395/185/365 398/189/369 427/218/398
f 427/218/398 398/189/369 401/188/368
f 420/209/389 417/205/385 432/219/399
f 430/220/400 432/219/399 433/221/401
f 432/219/399 413/203/383 411/201/381
f 417/205/385 414/204/384 413/203/383
f 433/221/401 411/201/381 409/199/379
f 431/222/402 433/221/401 434/223/403
f 435/225/405 434/223/403 409/199/379
f 436/224/404 434/223/403 435/225/405
f 438/227/407 437/226/406 435/225/405
f 438/227/407 440/228/408 441/229/409
f 440/228/408 403/192/372 404/194/374
f 440/228/408 435/225/405 407/193/373
f 397/186/366 441/229/409 404/194/374
f 439/230/410 441/229/409 397/186/366
f 443/182/411 446/186/415 445/183/412
f 445/183/412 447/189/418 444/185/414
f 446/186/415 449/190/419 448/187/416
f 445/183/412 448/187/416 450/188/417
f 466/205/434 465/207/436 464/198/427
f 467/206/435 455/197/426 464/198/427
f 468/208/437 465/207/436 466/205/434
f 470/210/439 467/206/435 465/207/436
f 471/211/440 473/213/442 467/206/435
f 472/212/441 474/214/443 473/213/442
f 473/213/442 454/195/424 455/197/426
f 473/213/442 474/214/443 457/196/425
f 474/214/443 475/216/445 459/200/429
f 477/215/444 475/216/445 474/214/443
f 475/216/445 476/218/447 461/202/431
f 478/217/446 476/218/447 475/216/445
f 444/185/414 447/189/418 476/218/447
f 476/218/447 447/189/418 450/188/417
f 469/209/438 466/205/434 481/219/448
f 479/220/449 481/219/448 482/221/450
f 481/219/448 462/203/432 460/201/430
f 466/205/434 463/204/433 462/203/432
f 482/221/450 460/201/430 458/199/428
f 480/222/451 482/221/450 483/223/452
f 484/225/454 483/223/452 458/199/428
f 485/224/453 483/223/452 484/225/454
f 487/227/456 486/226/455 484/225/454
f 487/227/456 489/228/457 490/229/458
f 489/228/457 452/192/421 453/194/423
f 489/228/457 484/225/454 456/193/422
f 446/186/415 490/229/458 453/194/423
f 488/230/459 490/229/458 446/186/415
f 89/96/460 91/64/86 92/66/88
s 0
f 311/139/503 508/259/503 514/260/503
f 355/128/504 537/128/504 547/128/504
s 1
f 357/232/463 378/234/465 377/261/505
f 226/64/466 228/76/231 229/65/223
f 116/96/467 118/64/114 119/66/116
f 510/262/506 509/263/507 505/264/508
f 506/265/509 513/242/483 514/241/482
f 512/266/510 511/267/511 509/263/507
f 503/268/512 504/269/513 511/267/511
f 505/264/508 506/265/509 508/270/514
f 504/269/513 503/268/512 501/271/515
f 510/262/506 505/264/508 507/272/516
f 506/265/509 514/241/482 508/270/514
f 512/266/510 509/263/507 510/262/506
f 503/268/512 511/267/511 512/266/510
f 505/264/508 508/270/514 507/272/516
f 504/269/513 501/271/515 502/273/517
s 0
f 309/246/518 321/274/518 513/275/518
f 308/276/519 505/248/519 509/250/519
s 1
f 523/253/520 529/277/521 530/255/522
f 515/278/523 527/173/524 516/279/525
f 519/147/526 524/280/527 523/253/520
f 528/281/528 520/258/529 527/173/524
f 520/258/529 525/282/530 526/146/531
f 518/283/532 526/146/531 525/282/530
f 529/277/521 522/179/533 530/255/522
f 523/253/520 524/280/527 529/277/521
f 515/278/523 528/281/528 527/173/524
f 519/147/526 518/283/532 524/280/527
f 528/281/528 517/284/534 520/258/529
f 520/258/529 517/284/534 525/282/530
f 518/283/532 519/147/526 526/146/531
f 529/277/521 521/257/501 522/179/533
f 377/261/535 516/285/535 378/234/535
s 0
f 390/128/536 517/128/536 528/128/536
s 1
f 357/232/537 531/286/537 532/287/537
s 0
f 532/287/538 531/286/538 515/288/538
f 357/232/539 377/261/539 515/288/539
f 358/233/540 532/287/540 516/289/540
f 288/129/297 501/131/297 503/134/297
f 287/132/298 286/130/298 501/131/298
f 288/129/299 512/135/299 318/245/299
f 289/136/300 511/138/300 504/231/300
f 311/139/301 507/141/301 508/259/301
f 391/128/541 383/128/541 521/128/541
f 381/145/332 388/181/332 526/146/332
f 378/172/354 516/279/354 527/173/354
f 379/128/355 387/128/355 525/128/355
f 392/178/542 530/255/542 522/179/542
f 391/128/360 529/128/360 524/128/360
f 382/180/361 520/258/361 526/146/361
f 289/136/461 502/133/461 287/132/461
s 1
f 322/126/481 513/242/483 321/125/481
s 0
f 310/140/484 510/244/484 507/141/484
f 318/245/485 510/244/485 314/243/485
f 309/246/486 505/248/486 308/276/486
f 317/137/487 509/250/487 511/138/487
f 386/128/494 524/128/494 518/128/494
f 385/252/495 381/145/495 519/147/495
f 392/178/496 385/252/496 523/253/496
f 377/128/497 390/128/497 528/128/497
f 380/128/499 518/128/499 525/128/499
s 1
f 384/177/500 522/179/533 521/257/501
s 0
f 389/174/543 527/173/543 520/258/543
f 311/139/544 514/260/544 322/290/544
f 309/246/545 513/275/545 506/247/545
f 308/276/519 509/250/519 313/249/519
s 1
f 377/261/546 516/285/546 515/288/546
s 0
f 390/128/536 379/128/536 517/128/536
s 1
f 357/232/547 358/233/547 532/287/547
s 0
f 532/287/548 515/288/548 516/289/548
f 357/232/549 515/288/549 531/286/549
f 358/233/550 516/289/550 378/234/550
s 1
f 538/291/551 542/251/493 541/142/552
f 539/292/553 543/293/554 544/294/555
f 540/295/556 547/296/557 548/297/558
f 546/298/559 543/293/554 545/299/560
f 535/300/561 545/299/560 536/301/562
f 537/302/563 548/297/558 547/296/557
f 534/303/564 535/300/561 536/301/562
f 538/291/551 540/295/556 542/251/493
f 539/292/553 537/302/563 543/293/554
f 540/295/556 538/291/551 547/296/557
f 546/298/559 544/294/555 543/293/554
f 535/300/561 546/298/559 545/299/560
f 537/302/563 539/292/553 548/297/558
f 534/303/564 533/304/565 535/300/561
s 0
f 323/128/566 535/128/566 533/128/566
f 325/128/567 546/128/567 535/128/567
f 326/128/568 353/128/568 324/128/568
s 1
f 350/128/488 346/128/569 343/143/324
s 0
f 356/128/570 345/128/570 355/128/570
f 348/128/571 355/128/571 346/128/571
f 347/128/572 351/128/572 345/128/572
f 351/128/573 354/128/573 353/128/573
f 325/128/574 353/128/574 354/128/574
f 324/128/575 325/128/575 323/128/575
f 389/174/576 377/261/576 378/234/576
f 390/128/577 382/180/577 379/128/577
f 387/128/578 382/180/578 388/181/578
f 388/181/579 380/128/579 387/128/579
f 386/128/580 381/145/580 385/252/580
f 391/128/581 385/252/581 392/178/581
f 384/177/582 391/128/582 392/178/582
f 286/130/583 289/136/583 287/132/583
f 317/137/584 288/129/584 318/245/584
f 313/249/585 318/245/585 314/243/585
f 308/276/586 314/243/586 310/140/586
f 308/276/587 311/139/587 309/246/587
f 322/126/588 309/246/588 311/139/588
f 348/128/296 540/128/296 548/128/296
f 326/128/326 536/128/326 545/128/326
f 350/128/327 542/128/327 540/128/327
f 347/128/328 539/128/328 544/128/328
f 349/128/329 346/128/329 538/128/329
f 346/128/330 355/128/330 547/128/330
f 354/128/589 352/128/589 544/128/589
f 326/128/590 324/128/590 534/128/590
f 345/128/489 351/128/489 543/128/489
f 351/128/490 353/128/490 545/128/490
f 323/128/591 533/128/591 534/128/591
f 356/128/492 548/128/492 539/128/492
s 1
f 349/142/323 541/142/552 542/251/493
s 0
f 355/128/504 345/128/504 537/128/504
f 323/128/592 325/128/592 535/128/592
f 325/128/593 354/128/593 546/128/593
s 1
f 350/128/488 348/128/594 346/128/569
s 0
f 356/128/595 347/128/595 345/128/595
f 348/128/596 356/128/596 355/128/596
f 347/128/597 352/128/597 351/128/597
f 351/128/598 352/128/598 354/128/598
f 325/128/599 326/128/599 353/128/599
f 324/128/600 326/128/600 325/128/600
f 389/174/601 390/128/601 377/261/601
f 390/128/602 389/174/602 382/180/602
f 387/128/603 379/128/603 382/180/603
f 388/181/604 381/145/604 380/128/604
f 386/128/605 380/128/605 381/145/605
f 391/128/606 386/128/606 385/252/606
f 384/177/607 383/175/607 391/128/607
f 286/130/608 288/129/608 289/136/608
f 317/137/609 289/136/609 288/129/609
f 313/249/610 317/137/610 318/245/610
f 308/276/611 313/249/611 314/243/611
f 308/276/612 310/140/612 311/139/612
f 322/126/613 321/125/613 309/246/613
l 141 349
