# Blender 5.0.1
# www.blender.org
o dandelion_01_a_LOD3
v -0.003335 0.000644 -0.000708
v 0.000242 0.005257 -0.002190
v 0.006134 0.022113 -0.007215
v 0.019632 0.014096 -0.000038
v 0.038410 0.030888 -0.003912
v 0.013304 0.036714 -0.019493
v 0.030571 0.043096 -0.039659
v 0.044441 0.035281 -0.053720
v 0.052637 0.040863 -0.024438
v 0.054971 0.034464 -0.049395
v 0.002941 0.003222 -0.000497
v -0.001469 -0.000336 0.000362
v 0.000259 0.000005 -0.001794
v -0.002356 0.000625 -0.000396
v 0.003570 0.004343 0.003790
v 0.001888 0.004436 0.005926
v 0.017325 0.015886 0.008596
v 0.012981 0.018646 0.018120
v 0.093623 0.013399 0.043642
v 0.083808 0.012325 0.057796
v 0.039853 0.026127 0.006318
v 0.030857 0.036135 0.034755
v 0.045897 0.030008 0.049366
v 0.066464 0.034592 0.015711
v 0.082846 0.025335 0.026074
v 0.064953 0.021362 0.058397
v 0.000110 0.000297 0.000538
v 0.004721 0.002401 0.004493
v 0.010774 0.010865 0.018793
v 0.024345 0.006622 0.037253
v 0.033477 -0.002240 0.064691
v 0.012276 0.022472 0.072177
v 0.024656 0.029073 0.097047
v 0.047138 -0.000442 0.088276
v 0.051741 0.010667 0.112714
v 0.043020 0.022652 0.115537
v 0.015988 0.019437 0.039323
v 0.007269 0.013489 0.019320
v 0.001374 0.003127 0.005094
v -0.002021 0.000661 0.001173
v -0.002989 0.001304 0.001936
v -0.007113 0.001686 -0.006779
v -0.001767 0.001801 -0.011370
v 0.002126 0.001336 -0.001074
v -0.010606 0.007408 -0.032000
v -0.014210 0.016176 -0.055612
v -0.033125 0.015700 -0.045208
v -0.019687 0.006893 -0.026555
v -0.049126 0.020305 -0.071318
v -0.023929 0.019961 -0.082501
v -0.032840 0.011490 -0.104640
v -0.061673 0.009300 -0.093765
v -0.067286 0.001014 -0.119008
v -0.063142 0.004035 -0.133027
v -0.043851 0.003523 -0.123546
v -0.057415 0.003391 -0.134931
v -0.003535 -0.000324 -0.001754
v 0.001315 0.001212 -0.007778
v 0.006080 0.001300 -0.005111
v -0.001105 -0.000346 0.000319
v 0.019514 0.005746 -0.016198
v 0.037036 0.009773 -0.025721
v 0.022876 0.010268 -0.034992
v 0.012814 0.005226 -0.021126
v 0.028673 0.008463 -0.057551
v 0.057100 0.008362 -0.038898
v 0.066278 0.006211 -0.059629
v 0.035953 0.005107 -0.076970
v 0.046789 0.000303 -0.091744
v 0.055473 0.003061 -0.097324
v 0.063721 0.002629 -0.079494
v 0.061694 0.002412 -0.093303
v -0.002400 0.001802 -0.003656
v 0.001500 0.001901 -0.000769
v -0.000073 0.000166 0.002375
v -0.008220 0.001406 0.003802
v -0.010422 0.001505 -0.001868
v -0.000875 0.000859 -0.001734
v -0.029987 0.006021 -0.001268
v -0.050605 0.011353 -0.005542
v -0.046294 0.006615 0.012419
v -0.027997 0.005054 0.007745
v -0.069371 0.003760 0.021413
v -0.074222 0.018896 0.002282
v -0.095114 0.021924 0.010691
v -0.090888 0.003437 0.022291
v -0.114277 0.001725 0.021907
v -0.123368 0.008064 0.027288
v -0.113500 0.017823 0.018346
v -0.124063 0.012724 0.026057
v -0.002703 0.001338 -0.003872
v -0.003908 0.002525 0.000506
v -0.013303 0.006706 -0.008694
v -0.022195 0.012583 -0.014253
v -0.037856 0.018693 -0.013800
v -0.032937 0.016375 -0.031584
v -0.050537 0.029923 -0.043764
v -0.056950 0.018035 -0.012496
v -0.079806 0.015099 -0.019692
v -0.095824 0.005852 -0.029868
v -0.074640 0.025635 -0.048150
v -0.096600 0.004393 -0.040888
v -0.021178 0.010895 -0.017413
v -0.012201 0.006235 -0.010383
v 0.000311 0.000898 -0.001952
v -0.009011 0.012132 0.005068
v -0.013202 0.003259 0.001707
v -0.034032 0.007039 0.002912
v -0.021570 0.013105 0.011525
v -0.035141 0.021524 0.022395
v -0.046257 0.022364 0.036412
v -0.049052 0.003878 0.015198
v -0.051089 0.015356 0.037769
v -0.001450 -0.001263 -0.001500
v -0.000151 0.004378 0.002156
v -0.004304 0.000797 0.000698
v 0.000305 0.000720 0.000816
v -0.000873 0.002434 0.005177
v -0.008851 0.007236 0.014371
v -0.016189 0.007595 0.027725
v -0.031075 0.002622 0.043458
v -0.041786 0.019666 0.033691
v -0.059909 0.020601 0.036909
v -0.056038 -0.001191 0.053543
v -0.075026 0.003094 0.049535
v -0.076183 0.012283 0.043650
v -0.021716 0.016048 0.024125
v -0.010773 0.008864 0.012540
v -0.002761 0.002843 0.003525
v -0.002026 0.001103 -0.000039
v -0.000330 0.001263 0.003126
v -0.002451 0.001695 0.001820
v 0.000494 0.002366 -0.001607
v -0.002882 0.003005 -0.000859
v -0.001301 0.005440 -0.008943
v -0.001689 0.009781 -0.017937
v -0.009169 0.013631 -0.029163
v 0.005812 0.012981 -0.033226
v 0.005649 0.023716 -0.051557
v -0.018112 0.011262 -0.042194
v -0.022396 0.007299 -0.061446
v -0.021032 0.002116 -0.077543
v -0.000942 0.018132 -0.070472
v -0.013390 0.001844 -0.082920
v 0.001159 0.008642 -0.018509
v 0.000438 0.005313 -0.008827
v -0.003069 -0.000227 -0.002062
v -0.001611 0.000678 -0.008356
v 0.002442 0.002175 -0.008238
v 0.000018 0.000634 -0.001273
v 0.005924 0.014373 -0.021329
v 0.013659 0.022305 -0.032934
v 0.000778 0.012670 -0.038751
v -0.001000 0.010777 -0.024090
v -0.002577 0.013563 -0.057565
v 0.013727 0.027056 -0.051735
v 0.018252 0.021124 -0.071184
v 0.002597 0.008914 -0.072859
v 0.011208 0.000495 -0.090815
v 0.012204 0.006304 -0.100100
v 0.018056 0.013715 -0.088375
v 0.014779 0.009814 -0.099993
v -0.000284 0.000981 0.000559
v -0.000224 0.002252 0.004329
v -0.001661 0.009824 0.009214
v -0.000583 0.021223 0.011544
v 0.003941 0.035020 0.022480
v -0.018651 0.032456 0.025255
v -0.023231 0.034653 0.039838
v -0.001533 0.040875 0.046040
v -0.012933 0.037830 0.058244
v -0.021740 0.036805 0.055217
v -0.009813 0.021682 0.011729
v -0.004050 0.009104 0.010007
v -0.002167 0.001197 0.004400
v -0.002281 0.000102 0.001085
v -0.002112 0.000650 0.000301
v -0.002722 0.005748 0.002663
v -0.001623 0.006036 0.000668
v 0.000274 0.001194 -0.002734
v -0.001163 0.021063 0.004707
v 0.003860 0.033676 0.001965
v 0.000356 0.033130 0.016849
v -0.000077 0.044820 0.027225
v 0.013021 0.050884 0.002910
v 0.023558 0.064486 0.013240
v 0.035947 0.070147 0.024293
v 0.012207 0.059135 0.035522
v 0.036613 0.068198 0.033382
v -0.001195 0.020218 0.007674
v -0.011983 0.150860 -0.006122
v -0.008782 0.148789 0.000144
v -0.012838 0.140418 -0.007505
v -0.011507 0.139524 -0.004840
v -0.004524 0.001009 -0.002732
v -0.002346 0.001994 0.001855
v -0.013216 0.085153 -0.013263
v -0.007263 0.041679 -0.009546
v -0.014507 0.085030 -0.016069
v -0.008540 0.041285 -0.012337
v -0.014702 0.116362 -0.011118
v -0.015932 0.116529 -0.013748
v -0.014125 0.128234 -0.009197
v -0.015407 0.128681 -0.011878
v -0.005043 0.024821 -0.005276
v -0.006397 0.024347 -0.008219
v -0.065046 0.093664 -0.055603
v -0.060751 0.092213 -0.058527
v -0.063169 0.085308 -0.052488
v -0.060978 0.084653 -0.053926
v -0.006372 -0.000093 0.000266
v -0.002454 0.002146 0.001096
v -0.018222 0.023895 -0.013393
v -0.020311 0.022155 -0.014178
v -0.006700 0.003590 0.000676
v -0.009148 0.002234 0.000047
v -0.057270 0.061746 -0.043481
v -0.059184 0.061210 -0.042428
v -0.061001 0.075059 -0.049885
v -0.062774 0.075353 -0.048463
v -0.029673 0.033395 -0.024520
v -0.031526 0.031549 -0.024805
v 0.004860 0.096498 0.008931
v 0.003959 0.096366 0.011800
v -0.000379 0.002071 -0.002483
v -0.002506 0.001969 0.001084
v 0.004160 0.099523 0.006881
v 0.000562 0.099275 0.009453
v 0.001897 0.099242 0.013676
v 0.006321 0.099470 0.013715
v 0.007719 0.099644 0.009515
v 0.003862 0.104651 0.010774
v 0.013479 0.063482 0.004742
v 0.012151 0.063243 0.006989
v -0.001178 0.005064 -0.001769
v -0.002636 0.004994 0.000691
v 0.000211 0.019714 0.001957
v 0.001675 0.019648 -0.000370
v 0.014098 0.047740 0.004896
v 0.012735 0.047798 0.007125
v -0.003768 0.138236 0.011157
v -0.017882 0.139660 0.015424
v -0.006914 0.153454 0.003536
v -0.011792 0.154450 0.005254
v -0.010745 0.148200 -0.003612
v -0.003468 0.154219 0.000296
v -0.016210 0.156116 -0.004555
v -0.002899 0.155357 -0.005313
v -0.015913 0.154840 0.001002
v -0.007059 0.156368 -0.008919
v -0.012929 0.156891 -0.008840
v -0.018797 0.150988 -0.022782
v -0.028331 0.148231 -0.011265
v -0.029239 0.144310 0.004102
v -0.002828 0.149125 -0.022176
v 0.009096 0.144483 -0.009639
v 0.006304 0.140556 0.004716
v -0.049631 0.083339 -0.062929
v -0.044093 0.089028 -0.053309
v -0.058054 0.095226 -0.062639
v -0.056038 0.097616 -0.059494
v -0.062216 0.091707 -0.056669
v -0.061379 0.094443 -0.064784
v -0.063491 0.099009 -0.054343
v -0.066195 0.094493 -0.064279
v -0.058836 0.098596 -0.055472
v -0.068583 0.096046 -0.060524
v -0.067630 0.098155 -0.056134
v -0.076757 0.093548 -0.047056
v -0.065384 0.095523 -0.041521
v -0.052151 0.094569 -0.043208
v -0.078605 0.087568 -0.059070
v -0.069669 0.082016 -0.069878
v -0.056930 0.081477 -0.069884
v 0.004481 0.092227 0.010426
vn -0.2451 0.4635 0.8515
vn -0.2524 0.4049 0.8789
vn -0.1203 0.5436 0.8307
vn -0.2390 0.5113 0.8255
vn -0.1907 0.8180 0.5427
vn -0.0999 0.8173 0.5675
vn 0.0799 0.9941 0.0738
vn 0.2018 0.9270 -0.3161
vn 0.0147 0.9921 0.1242
vn 0.2277 0.9381 -0.2611
vn -0.2414 0.4038 0.8824
vn -0.2298 0.4612 0.8570
vn -0.1103 0.8155 -0.5682
vn -0.1590 0.8391 -0.5203
vn -0.3957 0.8299 -0.3934
vn -0.4293 0.8203 -0.3780
vn -0.4455 0.7853 -0.4299
vn -0.4367 0.7921 -0.4264
vn 0.3945 0.8543 0.3384
vn 0.4089 0.8486 0.3356
vn -0.2829 0.8729 -0.3976
vn -0.1198 0.9809 -0.1533
vn 0.2354 0.9362 0.2612
vn 0.1528 0.9834 0.0984
vn 0.3440 0.8849 0.3141
vn 0.3425 0.8906 0.2991
vn 0.0153 0.8474 -0.5307
vn 0.0857 0.8389 -0.5375
vn 0.4871 0.6942 -0.5299
vn 0.7996 0.5575 -0.2232
vn 0.7143 0.6590 -0.2357
vn 0.7050 0.6603 -0.2586
vn 0.6374 0.6211 -0.4560
vn 0.6435 0.6313 -0.4328
vn 0.6925 0.5987 -0.4025
vn 0.6673 0.6149 -0.4201
vn 0.7705 0.6034 -0.2054
vn 0.4507 0.7107 -0.5401
vn 0.0960 0.8314 -0.5473
vn -0.0114 0.8508 -0.5254
vn 0.0152 0.9992 0.0366
vn 0.0644 0.9930 0.0988
vn 0.0767 0.9885 0.1301
vn 0.0144 0.9992 0.0379
vn 0.1216 0.9501 0.2872
vn 0.0990 0.9723 0.2117
vn 0.1009 0.9678 0.2308
vn 0.1200 0.9530 0.2781
vn -0.0628 0.9908 -0.1198
vn -0.0341 0.9936 -0.1074
vn -0.1706 0.9355 -0.3094
vn -0.1827 0.9325 -0.3114
vn -0.1001 0.9892 -0.1067
vn 0.1931 0.9459 0.2609
vn -0.1459 0.9751 -0.1672
vn 0.0071 0.9884 0.1520
vn -0.4488 0.7169 0.5336
vn -0.0301 0.9992 0.0256
vn -0.0705 0.9950 0.0704
vn -0.4265 0.7303 0.5336
vn -0.1774 0.9667 0.1844
vn -0.0052 0.9991 0.0418
vn -0.0227 0.9977 0.0640
vn -0.1964 0.9644 0.1770
vn 0.0524 0.9939 -0.0967
vn 0.0469 0.9967 -0.0662
vn 0.0598 0.9893 -0.1334
vn 0.0583 0.9794 -0.1935
vn -0.0202 0.9949 -0.0991
vn -0.1014 0.9455 0.3095
vn 0.0148 0.9874 -0.1578
vn -0.1292 0.9866 0.0993
vn -0.2138 0.9460 0.2435
vn -0.1508 0.9746 0.1657
vn 0.1715 0.9764 0.1312
vn 0.1295 0.9916 -0.0056
vn 0.1403 0.9899 -0.0183
vn 0.1339 0.9878 0.0801
vn 0.1821 0.9777 0.1045
vn 0.2903 0.9402 0.1783
vn 0.2189 0.9340 0.2823
vn 0.1616 0.9851 0.0591
vn 0.0732 0.7911 0.6073
vn 0.2213 0.7878 0.5748
vn 0.2995 0.5553 0.7759
vn 0.1553 0.5773 0.8016
vn 0.2438 0.2148 0.9457
vn 0.6276 0.2850 0.7245
vn 0.2495 0.3162 0.9153
vn 0.5718 0.2095 0.7932
vn 0.4819 0.8717 -0.0890
vn 0.4858 0.8682 -0.1015
vn 0.4622 0.8868 0.0005
vn 0.4644 0.8346 -0.2963
vn 0.1414 0.9840 -0.1089
vn 0.3160 0.9370 0.1491
vn 0.0271 0.9330 0.3589
vn -0.0208 0.9676 0.2517
vn -0.3914 0.8835 0.2574
vn -0.6481 0.7584 0.0696
vn -0.3818 0.8931 0.2379
vn -0.7021 0.7107 -0.0446
vn 0.4850 0.8564 -0.1770
vn 0.4384 0.8981 0.0356
vn -0.4397 0.4989 -0.7468
vn -0.2033 0.4319 -0.8787
vn -0.0973 0.5130 -0.8528
vn -0.1899 0.7648 -0.6157
vn -0.0246 0.7355 -0.6770
vn -0.4916 0.6957 -0.5237
vn -0.7141 0.3783 -0.5890
vn -0.5952 0.6576 -0.4618
vn -0.6808 0.5477 -0.4864
vn -0.4891 0.2222 -0.8434
vn -0.1479 0.5154 -0.8441
vn -0.1836 0.4518 -0.8730
vn 0.2660 0.9455 -0.1879
vn 0.4096 0.8771 -0.2510
vn 0.5446 0.8285 0.1302
vn 0.6033 0.6290 0.4902
vn 0.3365 0.6097 0.7176
vn 0.2826 0.6199 0.7320
vn 0.1038 0.6151 0.7816
vn 0.1057 0.5960 0.7960
vn -0.0578 0.5333 0.8440
vn -0.0110 0.5811 0.8138
vn 0.5656 0.6252 0.5377
vn 0.6027 0.7796 0.1703
vn 0.4300 0.8571 -0.2836
vn 0.2435 0.9389 -0.2431
vn 0.3862 0.8768 -0.2863
vn 0.3412 0.8880 -0.3082
vn 0.2194 0.9178 0.3308
vn 0.2445 0.9142 0.3232
vn 0.1029 0.9299 0.3531
vn 0.3985 0.8943 0.2034
vn 0.0643 0.9979 0.0067
vn -0.0665 0.9507 0.3029
vn -0.4029 0.9007 0.1625
vn -0.3383 0.9388 0.0644
vn -0.5060 0.8440 -0.1779
vn -0.4611 0.7717 -0.4380
vn -0.4857 0.8481 -0.2117
vn -0.3776 0.7269 -0.5735
vn 0.3048 0.9109 0.2782
vn 0.0447 0.9344 0.3535
vn -0.2847 0.9559 0.0715
vn -0.3309 0.9038 0.2714
vn -0.3690 0.8598 0.3531
vn -0.3066 0.9488 0.0765
vn -0.5668 0.7834 0.2551
vn -0.6350 0.7576 0.1511
vn -0.6238 0.7694 0.1376
vn -0.5094 0.8175 0.2688
vn -0.6036 0.7787 -0.1712
vn -0.6154 0.7856 -0.0641
vn -0.5401 0.7633 -0.3546
vn -0.5847 0.6946 -0.4191
vn -0.8346 0.5010 -0.2292
vn -0.7804 0.5643 0.2693
vn -0.7589 0.5839 -0.2883
vn -0.8526 0.4941 0.1699
vn -0.4538 0.8492 -0.2701
vn -0.4054 0.6838 -0.6068
vn -0.3849 0.3264 -0.8633
vn -0.0201 0.4115 -0.9112
vn -0.1284 0.8472 -0.5155
vn -0.1778 0.8959 -0.4071
vn -0.2097 0.9670 -0.1449
vn -0.2147 0.9652 -0.1494
vn -0.2008 0.9780 -0.0564
vn -0.0699 0.9888 -0.1316
vn -0.0630 0.5114 -0.8570
vn -0.3049 0.3115 -0.9000
vn -0.4128 0.7327 -0.5410
vn -0.4464 0.8542 -0.2667
vn -0.8121 0.1127 -0.5725
vn -0.8910 0.1315 -0.4345
vn -0.8621 0.1279 -0.4903
vn -0.7909 0.1127 -0.6015
vn -0.9624 0.2679 0.0453
vn -0.9026 0.3913 -0.1795
vn -0.8964 0.3405 -0.2838
vn -0.7887 0.5451 -0.2843
vn -0.7848 0.5704 -0.2424
vn -0.5785 0.8089 -0.1050
vn -0.3719 0.9209 0.1168
vn -0.5921 0.8011 -0.0878
vn -0.3224 0.9204 0.2210
vn -0.9732 0.2282 -0.0281
vn -0.8893 0.0144 0.4572
vn -0.8884 0.0146 0.4588
vn -0.8922 0.0224 0.4511
vn -0.8908 0.0214 0.4540
vn -0.9055 0.0255 0.4235
vn -0.9052 0.0256 0.4243
vn -0.9042 -0.0797 0.4196
vn -0.9055 -0.0485 0.4216
vn -0.9043 -0.0796 0.4195
vn -0.9052 -0.0520 0.4217
vn -0.9057 -0.0482 0.4212
vn -0.9059 -0.0495 0.4207
vn -0.9011 0.0069 0.4336
vn -0.9023 0.0018 0.4311
vn -0.9086 0.0075 0.4176
vn -0.9088 0.0043 0.4173
vn 0.6045 0.3939 0.6924
vn 0.6004 0.3970 0.6942
vn 0.5910 0.3632 0.7202
vn 0.5847 0.3633 0.7254
vn -0.1565 -0.1230 0.9800
vn -0.1385 -0.1217 0.9829
vn -0.5288 0.2823 0.8004
vn -0.5310 0.2832 0.7986
vn -0.2664 0.0616 0.9619
vn -0.3323 0.1563 0.9301
vn 0.2843 0.5443 0.7893
vn 0.2812 0.5467 0.7887
vn 0.6107 0.3952 0.6862
vn 0.6020 0.3973 0.6927
vn -0.4306 0.2945 0.8531
vn -0.4141 0.2994 0.8596
vn -0.9317 -0.1861 -0.3121
vn -0.9346 -0.1873 -0.3023
vn -0.8528 -0.1057 -0.5114
vn -0.8535 -0.1045 -0.5104
vn 0.0046 0.0873 -0.9962
vn -0.9491 0.0210 -0.3143
vn -0.5943 0.0094 0.8042
vn 0.5769 0.0684 0.8140
vn 0.9475 0.1165 -0.2977
vn -0.0516 0.9984 0.0241
vn -0.8527 -0.0957 -0.5136
vn -0.8550 -0.0991 -0.5091
vn -0.8586 0.0397 -0.5110
vn -0.8599 0.0441 -0.5085
vn -0.7990 0.3199 -0.5092
vn -0.7968 0.3239 -0.5101
vn -0.8337 0.2008 -0.5144
vn -0.8328 0.2027 -0.5151
vn 0.3527 0.4670 0.8109
vn -0.0654 0.6016 0.7961
vn 0.1684 0.9389 0.3001
vn 0.0571 0.9262 0.3726
vn 0.1111 0.9762 0.1861
vn 0.1534 0.9438 0.2929
vn -0.0111 0.9759 0.2179
vn 0.2154 0.9655 0.1466
vn -0.0387 0.9762 0.2135
vn 0.1030 0.9879 0.1155
vn 0.0193 0.9926 0.1197
vn -0.1786 0.9308 -0.3189
vn -0.5370 0.8436 -0.0006
vn -0.4928 0.7523 0.4373
vn 0.3448 0.8616 -0.3726
vn 0.6912 0.7216 0.0379
vn 0.5820 0.5749 0.5751
vn 0.6008 0.4292 -0.6744
vn 0.6405 0.6950 -0.3266
vn 0.0603 0.8514 -0.5210
vn 0.1472 0.8941 -0.4231
vn -0.0576 0.8851 -0.4618
vn 0.0449 0.8574 -0.5127
vn -0.0047 0.9413 -0.3377
vn -0.1241 0.8375 -0.5322
vn -0.0039 0.9516 -0.3073
vn -0.1380 0.8978 -0.4182
vn -0.1099 0.9334 -0.3415
vn -0.4741 0.8800 -0.0300
vn -0.0795 0.9670 0.2421
vn 0.3499 0.9298 0.1145
vn -0.6145 0.6290 -0.4761
vn -0.2609 0.4394 -0.8596
vn 0.3062 0.4173 -0.8556
vn 0.0489 -0.9984 -0.0296
vt 0.679102 0.044877
vt 0.788977 0.142263
vt 0.658232 0.188251
vt 0.318054 0.223838
vt 0.386146 0.353875
vt 0.230896 0.321148
vt 0.301178 0.600804
vt 0.239520 0.689656
vt 0.203573 0.577233
vt 0.244859 0.720106
vt 0.260812 0.691207
vt 0.258208 0.722551
vt 0.192243 0.444811
vt 0.357513 0.501635
vt 0.895355 0.301801
vt 0.751193 0.210284
vt 0.835774 0.158689
vt 0.440734 0.018378
vt 0.337423 0.139547
vt 0.329586 0.056838
vt 0.923039 0.107116
vt 0.891271 0.103056
vt 0.921267 0.092489
vt 0.554567 0.204138
vt 0.545626 0.015066
vt 0.892313 0.116516
vt 0.788598 0.090710
vt 0.062668 0.342432
vt 0.140319 0.238098
vt 0.165052 0.355577
vt 0.567962 0.294704
vt 0.516913 0.254217
vt 0.569799 0.277438
vt 0.650787 0.260038
vt 0.936694 0.162569
vt 0.755891 0.337202
vt 0.644029 0.318868
vt 0.496909 0.241559
vt 0.509611 0.233770
vt 0.123126 0.084206
vt 0.154525 0.082780
vt 0.150817 0.096652
vt 0.166562 0.589359
vt 0.036266 0.468541
vt 0.167660 0.475951
vt 0.144331 0.120028
vt 0.090492 0.228487
vt 0.112538 0.108949
vt 0.108944 0.769563
vt 0.037409 0.716977
vt 0.149950 0.696715
vt 0.018985 0.592162
vt 0.513262 0.243993
vt 0.305986 0.820751
vt 0.269669 0.754863
vt 0.328926 0.803982
vt 0.258365 0.759064
vt 0.379325 0.247418
vt 0.229016 0.658435
vt 0.506220 0.264135
vt 0.501564 0.252847
vt 0.290797 0.809071
vt 0.289640 0.786082
vt 0.276119 0.795858
vt 0.963428 0.218087
vt 0.016400 0.858490
vt 0.103709 0.843280
vt 0.103434 0.857952
vt 0.166022 0.844311
vt 0.040937 0.857893
vt 0.041395 0.842249
vt 0.426367 0.859144
vt 0.312579 0.845062
vt 0.426419 0.846145
vt 0.471155 0.859525
vt 0.471033 0.845934
vt 0.515943 0.859905
vt 0.515647 0.845723
vt 0.165930 0.858011
vt 0.411309 0.456081
vt 0.365478 0.580167
vt 0.400945 0.453335
vt 0.017595 0.838831
vt 0.239300 0.844686
vt 0.239213 0.858379
vt 0.443186 0.293714
vt 0.426270 0.399932
vt 0.415903 0.397168
vt 0.073737 0.141782
vt 0.041307 0.144173
vt 0.043527 0.130171
vt 0.075922 0.119715
vt 0.043366 0.117524
vt 0.040181 0.102731
vt 0.077833 0.151305
vt 0.035171 0.166708
vt 0.014206 0.124486
vt 0.079502 0.107334
vt 0.029546 0.078472
vt 0.455510 0.246426
vt 0.454414 0.296874
vt 0.475461 0.231335
vt 0.467597 0.249966
vt 0.668980 0.824568
vt 0.721131 0.771505
vt 0.697523 0.834791
vt 0.716962 0.854427
vt 0.676273 0.873181
vt 0.645905 0.847103
vt 0.644131 0.879114
vt 0.658946 0.907161
vt 0.692806 0.908909
vt 0.719193 0.887080
vt 0.583124 0.897428
vt 0.723675 0.976289
vt 0.627007 0.974381
vt 0.651174 0.746066
vt 0.792996 0.902516
vt 0.780913 0.812843
vt 0.537495 0.860593
vt 0.536606 0.842948
vt 0.073839 0.131107
vt 0.432193 0.195305
vt 0.129726 0.068908
vt 0.080168 0.771095
vt 0.274530 0.664560
vt 0.310817 0.793243
vt 0.312496 0.858747
vt 0.380745 0.583867
vt 0.460196 0.226342
vt 0.586940 0.810299
s 1
f 21/1/21 18/2/18 22/3/22
f 10/4/10 7/5/7 9/6/9
f 3/7/3 11/8/11 4/9/4
f 12/10/12 2/11/2 1/12/1
f 5/13/5 7/5/7 6/14/6
f 34/15/34 32/16/32 33/17/33
f 25/18/25 20/19/20 19/20/19
f 14/21/14 15/22/15 13/23/13
f 23/24/23 25/18/25 24/25/24
f 22/3/22 24/25/24 21/1/21
f 16/26/16 17/27/17 15/22/15
f 47/28/47 45/29/45 46/30/46
f 29/31/29 39/32/39 38/33/38
f 37/34/37 29/31/29 38/33/38
f 36/35/36 34/15/34 33/17/33
f 185/14/185 183/9/183 184/13/184
f 37/34/37 31/36/31 30/37/30
f 39/32/39 27/38/27 40/39/40
f 73/40/73 60/41/60 74/42/74
f 51/43/51 49/44/49 50/45/50
f 43/46/43 48/47/48 42/48/42
f 56/49/56 53/50/53 55/51/55
f 42/48/42 44/41/44 43/46/43
f 46/30/46 49/44/49 47/28/47
f 55/51/55 52/52/52 51/43/51
f 81/28/81 79/29/79 80/30/80
f 67/43/67 65/44/65 66/45/66
f 59/46/59 64/47/64 58/48/58
f 72/49/72 69/50/69 71/51/71
f 74/42/74 58/48/58 73/40/73
f 62/30/62 65/44/65 63/28/63
f 71/51/71 68/52/68 67/43/67
f 63/28/63 61/29/61 62/30/62
f 132/53/132 117/38/117 130/39/130
f 98/14/98 96/9/96 97/13/97
f 86/52/86 84/45/84 85/43/85
f 77/46/77 82/47/82 76/48/76
f 90/49/90 87/50/87 89/51/89
f 76/48/76 78/41/78 77/46/77
f 84/45/84 81/28/81 80/30/80
f 89/51/89 86/52/86 85/43/85
f 109/14/109 107/9/107 108/13/108
f 91/54/91 93/55/93 92/56/92
f 103/8/103 93/55/93 104/57/104
f 101/6/101 100/58/100 99/5/99
f 103/8/103 95/7/95 94/11/94
f 97/13/97 99/5/99 98/14/98
f 113/4/113 110/5/110 112/6/112
f 175/32/175 163/38/163 176/39/176
f 106/7/106 116/59/116 107/9/107
f 116/59/116 105/11/105 114/8/114
f 108/13/108 110/5/110 109/14/109
f 124/15/124 122/16/122 123/17/123
f 140/14/140 138/9/138 139/13/139
f 129/32/129 119/31/119 118/60/118
f 128/33/128 120/37/120 119/31/119
f 126/35/126 124/15/124 123/17/123
f 127/34/127 121/36/121 120/37/120
f 129/32/129 131/61/131 132/53/132
f 135/55/135 133/62/133 146/57/146
f 145/8/145 135/55/135 146/57/146
f 143/6/143 142/58/142 141/5/141
f 151/29/151 153/28/153 154/47/154
f 145/8/145 137/7/137 136/11/136
f 139/13/139 141/5/141 140/14/140
f 170/15/170 168/16/168 169/17/169
f 148/48/148 150/41/150 149/46/149
f 157/43/157 155/44/155 156/45/156
f 149/46/149 154/47/154 148/48/148
f 162/49/162 159/50/159 161/51/161
f 156/45/156 153/28/153 152/30/152
f 161/51/161 158/52/158 157/43/157
f 179/63/179 177/54/177 178/64/178
f 174/33/174 164/60/164 175/32/175
f 174/33/174 166/37/166 165/31/165
f 169/17/169 171/65/171 170/15/170
f 173/34/173 167/36/167 166/37/166
f 181/11/181 178/64/178 190/8/190
f 188/6/188 187/58/187 186/5/186
f 190/8/190 182/7/182 181/11/181
f 184/13/184 186/5/186 185/14/185
f 195/66/195 205/67/205 206/68/206
f 213/69/213 216/70/216 215/71/215
f 202/72/202 197/73/197 201/74/201
f 198/69/198 206/68/206 205/67/205
f 204/75/204 201/74/201 203/76/203
f 193/77/193 203/76/203 194/78/194
f 197/73/197 200/79/200 198/69/198
f 234/80/234 223/81/223 233/82/233
f 215/71/215 211/66/211 212/83/212
f 214/79/214 221/84/221 222/85/222
f 220/75/220 217/74/217 219/76/219
f 209/77/209 219/76/219 210/78/210
f 222/85/222 217/74/217 218/72/218
f 238/86/238 240/87/240 239/88/239
f 275/89/275 229/90/229 228/91/228
f 275/92/275 227/93/227 231/94/231
f 275/95/275 230/96/230 229/90/229
f 228/91/228 232/97/232 227/93/227
f 275/98/275 231/94/231 230/99/230
f 231/94/231 232/97/232 230/99/230
f 229/90/229 232/97/232 228/91/228
f 227/93/227 232/97/232 231/94/231
f 230/96/230 232/97/232 229/90/229
f 235/100/235 237/101/237 238/86/238
f 235/100/235 226/102/226 236/103/236
f 234/80/234 239/88/239 240/87/240
f 261/104/261 258/105/258 260/106/260
f 243/106/243 246/107/246 245/108/245
f 249/109/249 245/108/245 247/110/247
f 251/111/251 247/110/247 245/108/245
f 250/112/250 245/108/245 248/113/248
f 248/113/248 245/108/245 246/107/246
f 249/109/249 244/104/244 245/108/245
f 251/111/251 245/108/245 250/112/250
f 253/114/253 249/109/249 247/110/247
f 251/111/251 255/115/255 252/116/252
f 249/109/249 242/117/242 244/104/244
f 255/115/255 248/113/248 256/118/256
f 257/119/257 243/106/243 241/105/241
f 253/114/253 251/111/251 252/116/252
f 246/107/246 256/118/256 248/113/248
f 262/108/262 261/104/261 260/106/260
f 6/14/6 4/9/4 5/13/5
f 260/106/260 263/107/263 262/108/262
f 266/109/266 262/108/262 264/110/264
f 268/111/268 264/110/264 262/108/262
f 267/112/267 262/108/262 265/113/265
f 265/113/265 262/108/262 263/107/263
f 266/109/266 261/104/261 262/108/262
f 268/111/268 262/108/262 267/112/267
f 270/114/270 266/109/266 264/110/264
f 268/111/268 272/115/272 269/116/269
f 266/109/266 259/117/259 261/104/261
f 272/115/272 265/113/265 273/118/273
f 274/119/274 260/106/260 258/105/258
f 270/114/270 268/111/268 269/116/269
f 263/107/263 273/118/273 265/113/265
f 244/104/244 241/105/241 243/106/243
f 194/78/194 191/120/191 193/77/193
f 208/121/208 209/77/209 210/78/210
f 245/108/245 244/104/244 243/106/243
f 275/122/275 228/91/228 227/93/227
f 21/1/21 17/27/17 18/2/18
f 10/4/10 8/58/8 7/5/7
f 3/7/3 2/11/2 11/8/11
f 12/10/12 11/8/11 2/11/2
f 5/13/5 9/6/9 7/5/7
f 34/15/34 31/36/31 32/16/32
f 25/18/25 26/123/26 20/19/20
f 14/21/14 16/26/16 15/22/15
f 23/24/23 26/123/26 25/18/25
f 22/3/22 23/24/23 24/25/24
f 16/26/16 18/2/18 17/27/17
f 47/28/47 48/47/48 45/29/45
f 29/31/29 28/60/28 39/32/39
f 37/34/37 30/37/30 29/31/29
f 36/35/36 35/65/35 34/15/34
f 185/14/185 182/7/182 183/9/183
f 37/34/37 32/16/32 31/36/31
f 39/32/39 28/60/28 27/38/27
f 73/40/73 57/124/57 60/41/60
f 51/43/51 52/52/52 49/44/49
f 43/46/43 45/29/45 48/47/48
f 56/49/56 54/125/54 53/50/53
f 42/48/42 41/124/41 44/41/44
f 46/30/46 50/45/50 49/44/49
f 55/51/55 53/50/53 52/52/52
f 81/28/81 82/47/82 79/29/79
f 67/43/67 68/52/68 65/44/65
f 59/46/59 61/29/61 64/47/64
f 72/49/72 70/125/70 69/50/69
f 74/42/74 59/46/59 58/48/58
f 62/30/62 66/45/66 65/44/65
f 71/51/71 69/50/69 68/52/68
f 63/28/63 64/47/64 61/29/61
f 132/53/132 131/61/131 117/38/117
f 98/14/98 95/7/95 96/9/96
f 86/52/86 83/44/83 84/45/84
f 77/46/77 79/29/79 82/47/82
f 90/49/90 88/125/88 87/50/87
f 76/48/76 75/124/75 78/41/78
f 84/45/84 83/44/83 81/28/81
f 89/51/89 87/50/87 86/52/86
f 109/14/109 106/7/106 107/9/107
f 91/54/91 104/57/104 93/55/93
f 103/8/103 94/11/94 93/55/93
f 101/6/101 102/4/102 100/58/100
f 103/8/103 96/9/96 95/7/95
f 97/13/97 101/6/101 99/5/99
f 113/4/113 111/58/111 110/5/110
f 175/32/175 164/60/164 163/38/163
f 106/7/106 115/126/115 116/59/116
f 116/59/116 115/126/115 105/11/105
f 108/13/108 112/6/112 110/5/110
f 124/15/124 121/36/121 122/16/122
f 140/14/140 137/7/137 138/9/138
f 129/32/129 128/33/128 119/31/119
f 128/33/128 127/34/127 120/37/120
f 126/35/126 125/65/125 124/15/124
f 127/34/127 122/16/122 121/36/121
f 129/32/129 118/60/118 131/61/131
f 135/55/135 134/127/134 133/62/133
f 145/8/145 136/11/136 135/55/135
f 143/6/143 144/4/144 142/58/142
f 151/29/151 152/30/152 153/28/153
f 145/8/145 138/9/138 137/7/137
f 139/13/139 143/6/143 141/5/141
f 170/15/170 167/36/167 168/16/168
f 148/48/148 147/124/147 150/41/150
f 157/43/157 158/52/158 155/44/155
f 149/46/149 151/29/151 154/47/154
f 162/49/162 160/125/160 159/50/159
f 156/45/156 155/44/155 153/28/153
f 161/51/161 159/50/159 158/52/158
f 179/63/179 180/56/180 177/54/177
f 174/33/174 165/31/165 164/60/164
f 174/33/174 173/34/173 166/37/166
f 169/17/169 172/35/172 171/65/171
f 173/34/173 168/16/168 167/36/167
f 181/11/181 179/63/179 178/64/178
f 188/6/188 189/4/189 187/58/187
f 190/8/190 183/9/183 182/7/182
f 184/13/184 188/6/188 186/5/186
f 195/66/195 196/83/196 205/67/205
f 213/69/213 214/79/214 216/70/216
f 202/72/202 199/128/199 197/73/197
f 198/69/198 200/79/200 206/68/206
f 204/75/204 202/72/202 201/74/201
f 193/77/193 204/75/204 203/76/203
f 197/73/197 199/128/199 200/79/200
f 234/80/234 224/129/224 223/81/223
f 215/71/215 216/70/216 211/66/211
f 214/79/214 213/69/213 221/84/221
f 220/75/220 218/72/218 217/74/217
f 209/77/209 220/75/220 219/76/219
f 222/85/222 221/84/221 217/74/217
f 238/86/238 237/101/237 240/87/240
f 235/100/235 236/103/236 237/101/237
f 235/100/235 225/130/225 226/102/226
f 234/80/234 233/82/233 239/88/239
f 261/104/261 259/117/259 258/105/258
f 253/114/253 254/131/254 249/109/249
f 251/111/251 250/112/250 255/115/255
f 249/109/249 254/131/254 242/117/242
f 255/115/255 250/112/250 248/113/248
f 257/119/257 246/107/246 243/106/243
f 253/114/253 247/110/247 251/111/251
f 246/107/246 257/119/257 256/118/256
f 6/14/6 3/7/3 4/9/4
f 270/114/270 271/131/271 266/109/266
f 268/111/268 267/112/267 272/115/272
f 266/109/266 271/131/271 259/117/259
f 272/115/272 267/112/267 265/113/265
f 274/119/274 263/107/263 260/106/260
f 270/114/270 264/110/264 268/111/268
f 263/107/263 274/119/274 273/118/273
f 244/104/244 242/117/242 241/105/241
f 194/78/194 192/121/192 191/120/191
f 208/121/208 207/120/207 209/77/209
